<svg width="64" height="38" viewBox="0 0 64 38" fill="none" xmlns="http://www.w3.org/2000/svg">
<path d="M4.736 8.64096C3.776 8.64096 2.98667 8.36363 2.368 7.80897C1.77067 7.23297 1.472 6.52897 1.472 5.69697C1.472 4.84363 1.77067 4.13963 2.368 3.58496C2.98667 3.00896 3.776 2.72096 4.736 2.72096C5.67467 2.72096 6.44267 3.00896 7.04 3.58496C7.65867 4.13963 7.968 4.84363 7.968 5.69697C7.968 6.52897 7.65867 7.23297 7.04 7.80897C6.44267 8.36363 5.67467 8.64096 4.736 8.64096ZM7.456 10.497V28.353H1.984V10.497H7.456ZM16.7975 5.88897V19.329C16.7975 20.673 17.1282 21.7076 17.7895 22.433C18.4508 23.1583 19.4215 23.521 20.7015 23.521C21.9815 23.521 22.9628 23.1583 23.6455 22.433C24.3282 21.7076 24.6695 20.673 24.6695 19.329V5.88897H30.1415V19.297C30.1415 21.3023 29.7148 22.9983 28.8615 24.385C28.0082 25.7716 26.8562 26.817 25.4055 27.521C23.9762 28.225 22.3762 28.577 20.6055 28.577C18.8348 28.577 17.2455 28.2356 15.8375 27.553C14.4508 26.849 13.3522 25.8036 12.5415 24.417C11.7308 23.009 11.3255 21.3023 11.3255 19.297V5.88897H16.7975ZM39.456 13.025C39.9893 12.193 40.7253 11.521 41.664 11.009C42.6027 10.497 43.7013 10.241 44.96 10.241C46.432 10.241 47.7653 10.6143 48.96 11.361C50.1547 12.1076 51.0933 13.1743 51.776 14.561C52.48 15.9476 52.832 17.5583 52.832 19.393C52.832 21.2276 52.48 22.849 51.776 24.257C51.0933 25.6436 50.1547 26.721 48.96 27.489C47.7653 28.2356 46.432 28.609 44.96 28.609C43.7227 28.609 42.624 28.353 41.664 27.841C40.7253 27.329 39.9893 26.6676 39.456 25.857V36.865H33.984V10.497H39.456V13.025ZM47.264 19.393C47.264 18.0276 46.88 16.961 46.112 16.193C45.3653 15.4036 44.4373 15.009 43.328 15.009C42.24 15.009 41.312 15.4036 40.544 16.193C39.7973 16.9823 39.424 18.0596 39.424 19.425C39.424 20.7903 39.7973 21.8676 40.544 22.657C41.312 23.4463 42.24 23.841 43.328 23.841C44.416 23.841 45.344 23.4463 46.112 22.657C46.88 21.8463 47.264 20.7583 47.264 19.393ZM58.4548 8.64096C57.4948 8.64096 56.7054 8.36363 56.0868 7.80897C55.4894 7.23297 55.1908 6.52897 55.1908 5.69697C55.1908 4.84363 55.4894 4.13963 56.0868 3.58496C56.7054 3.00896 57.4948 2.72096 58.4548 2.72096C59.3934 2.72096 60.1614 3.00896 60.7588 3.58496C61.3774 4.13963 61.6868 4.84363 61.6868 5.69697C61.6868 6.52897 61.3774 7.23297 60.7588 7.80897C60.1614 8.36363 59.3934 8.64096 58.4548 8.64096ZM61.1748 10.497V28.353H55.7028V10.497H61.1748Z" fill="#004AAD"/>
</svg>
