<svg width="44" height="45" viewBox="0 0 44 45" fill="none" xmlns="http://www.w3.org/2000/svg">
<g clip-path="url(#clip0_563_3496)">
<g clip-path="url(#clip1_563_3496)">
<path d="M37.9372 33.2739C37.8329 33.0227 37.6566 32.8081 37.4305 32.6571C37.2044 32.506 36.9386 32.4253 36.6667 32.425H7.33333C6.96866 32.425 6.61892 32.5699 6.36106 32.8278C6.10319 33.0856 5.95833 33.4354 5.95833 33.8C5.95833 34.1647 6.10319 34.5145 6.36106 34.7723C6.61892 35.0302 6.96866 35.175 7.33333 35.175H33.3465L30.1932 38.3284C29.9426 38.5876 29.8038 38.9349 29.8068 39.2954C29.8097 39.6559 29.9542 40.0008 30.209 40.2559C30.4638 40.511 30.8086 40.6557 31.1691 40.659C31.5297 40.6623 31.877 40.5239 32.1365 40.2735L37.6365 34.7735C38.0288 34.3794 38.148 33.7891 37.9353 33.2757L37.9372 33.2739Z" fill="#2E68FD"/>
<path d="M34.8333 4.92505H9.16667C7.82991 4.92626 6.54824 5.45783 5.60301 6.40306C4.65778 7.34829 4.12621 8.62995 4.125 9.96672V24.6334C4.125 27.4145 6.3855 29.675 9.16667 29.675H34.8333C37.6145 29.675 39.875 27.4145 39.875 24.6334V9.96672C39.875 7.18555 37.6145 4.92505 34.8333 4.92505ZM37.125 24.6334C37.125 25.8965 36.0965 26.925 34.8333 26.925H9.16667C8.5591 26.9243 7.97663 26.6826 7.54702 26.253C7.1174 25.8234 6.87573 25.2409 6.875 24.6334V9.96672C6.875 8.70355 7.9035 7.67505 9.16667 7.67505H34.8333C36.0965 7.67505 37.125 8.70355 37.125 9.96672V24.6334ZM14.2083 11.8C14.2083 12.1647 14.0635 12.5145 13.8056 12.7723C13.5477 13.0302 13.198 13.175 12.8333 13.175H11C10.6353 13.175 10.2856 13.0302 10.0277 12.7723C9.76987 12.5145 9.625 12.1647 9.625 11.8C9.625 11.4354 9.76987 11.0856 10.0277 10.8278C10.2856 10.5699 10.6353 10.425 11 10.425H12.8333C13.198 10.425 13.5477 10.5699 13.8056 10.8278C14.0635 11.0856 14.2083 11.4354 14.2083 11.8ZM34.375 22.8C34.375 23.1647 34.2301 23.5145 33.9723 23.7723C33.7144 24.0302 33.3647 24.175 33 24.175H31.1667C30.802 24.175 30.4523 24.0302 30.1944 23.7723C29.9365 23.5145 29.7917 23.1647 29.7917 22.8C29.7917 22.4354 29.9365 22.0856 30.1944 21.8278C30.4523 21.5699 30.802 21.425 31.1667 21.425H33C33.3647 21.425 33.7144 21.5699 33.9723 21.8278C34.2301 22.0856 34.375 22.4354 34.375 22.8ZM22 10.425C18.2087 10.425 15.125 13.5087 15.125 17.3C15.125 21.0914 18.2087 24.175 22 24.175C25.7913 24.175 28.875 21.0914 28.875 17.3C28.875 13.5087 25.7913 10.425 22 10.425ZM22 21.425C20.9063 21.4241 19.8576 20.9892 19.0843 20.2158C18.3109 19.4424 17.876 18.3938 17.875 17.3C17.875 15.0249 19.7248 13.175 22 13.175C24.2752 13.175 26.125 15.0249 26.125 17.3C26.125 19.5752 24.2752 21.425 22 21.425Z" fill="#01081B"/>
</g>
</g>
<defs>
<clipPath id="clip0_563_3496">
<rect width="44" height="44" fill="white" transform="translate(0 0.800049)"/>
</clipPath>
<clipPath id="clip1_563_3496">
<rect width="44" height="44" fill="white" transform="translate(0 0.800049)"/>
</clipPath>
</defs>
</svg>
