<svg width="44" height="45" viewBox="0 0 44 45" fill="none" xmlns="http://www.w3.org/2000/svg">
<g clip-path="url(#clip0_563_3474)">
<g clip-path="url(#clip1_563_3474)">
<path d="M39.5413 25.1045L36.9178 15.9048C36.6118 14.8555 35.9745 13.9334 35.1012 13.2762C34.2279 12.6189 33.1653 12.2619 32.0723 12.2583H29.3315C28.9668 12.2583 28.6171 12.4032 28.3592 12.661C28.1014 12.9189 27.9565 13.2686 27.9565 13.6333C27.9565 13.998 28.1014 14.3477 28.3592 14.6056C28.6171 14.8634 28.9668 15.0083 29.3315 15.0083H32.0723C33.088 15.0083 33.9937 15.6903 34.2742 16.662L36.1552 23.2583H31.1667C29.3975 23.2583 27.9583 24.6975 27.9583 26.4666C27.9583 27.7298 26.9298 28.7583 25.6667 28.7583H18.3333C17.7258 28.7576 17.1433 28.5159 16.7137 28.0863C16.2841 27.6567 16.0424 27.0742 16.0417 26.4666C16.0417 24.6975 14.6025 23.2583 12.8333 23.2583H7.84483L9.724 16.6656C9.86279 16.1886 10.1523 15.7694 10.5492 15.4707C10.9461 15.1719 11.4291 15.0097 11.9258 15.0083H14.6667C15.0313 15.0083 15.3811 14.8634 15.6389 14.6056C15.8968 14.3477 16.0417 13.998 16.0417 13.6333C16.0417 13.2686 15.8968 12.9189 15.6389 12.661C15.3811 12.4032 15.0313 12.2583 14.6667 12.2583H11.9258C10.8323 12.2619 9.76938 12.6195 8.89596 13.2774C8.02254 13.9354 7.38558 14.8584 7.08033 15.9085L4.45867 25.1045C4.23718 25.8808 4.12488 26.6842 4.125 27.4915V35.6333C4.125 38.4145 6.3855 40.675 9.16667 40.675H34.8333C37.6145 40.675 39.875 38.4145 39.875 35.6333V27.4915C39.875 26.6848 39.7632 25.8818 39.5413 25.1045ZM37.125 35.6333C37.125 36.8965 36.0965 37.925 34.8333 37.925H9.16667C8.5591 37.9242 7.97663 37.6826 7.54702 37.253C7.1174 36.8233 6.87573 36.2409 6.875 35.6333V27.4915C6.875 27.0313 6.941 26.5748 7.0455 26.1275C7.12389 26.0543 7.22614 26.0119 7.33333 26.0083H12.8333C12.9549 26.0083 13.0715 26.0566 13.1574 26.1425C13.2434 26.2285 13.2917 26.3451 13.2917 26.4666C13.2917 29.2478 15.5522 31.5083 18.3333 31.5083H25.6667C28.4478 31.5083 30.7083 29.2478 30.7083 26.4666C30.7083 26.3451 30.7566 26.2285 30.8426 26.1425C30.9285 26.0566 31.0451 26.0083 31.1667 26.0083H36.6667C36.7785 26.0083 36.8738 26.0596 36.9545 26.1275C37.059 26.5748 37.125 27.0313 37.125 27.4915V35.6333Z" fill="#01081B"/>
<path d="M26.631 18.0994C26.5024 17.9725 26.3501 17.8721 26.1826 17.8042C26.0152 17.7362 25.8361 17.7019 25.6554 17.7033C25.4747 17.7046 25.2961 17.7416 25.1297 17.8121C24.9633 17.8826 24.8125 17.9852 24.6858 18.114L23.3732 19.4469V6.30005C23.3732 5.93538 23.2283 5.58564 22.9704 5.32778C22.7126 5.06991 22.3628 4.92505 21.9982 4.92505C21.6335 4.92505 21.2838 5.06991 21.0259 5.32778C20.768 5.58564 20.6232 5.93538 20.6232 6.30005V19.4982L19.2995 18.1855C19.0406 17.9286 18.6902 17.785 18.3254 17.7864C17.9606 17.7877 17.6113 17.934 17.3543 18.1929C17.0974 18.4518 16.9538 18.8022 16.9551 19.167C16.9565 19.5318 17.1028 19.8811 17.3617 20.1381L21.0283 23.7772C21.2857 24.0329 21.6336 24.1766 21.9963 24.1769H22.0037C22.3703 24.1769 22.7205 24.0266 22.9753 23.7662L26.642 20.0445C26.7688 19.9159 26.869 19.7635 26.9369 19.5961C27.0048 19.4287 27.0391 19.2496 27.0377 19.0689C27.0364 18.8883 26.9994 18.7097 26.929 18.5433C26.8586 18.377 26.7561 18.2261 26.6273 18.0994H26.631Z" fill="#2E68FD"/>
</g>
</g>
<defs>
<clipPath id="clip0_563_3474">
<rect width="44" height="44" fill="white" transform="translate(0 0.800049)"/>
</clipPath>
<clipPath id="clip1_563_3474">
<rect width="44" height="44" fill="white" transform="translate(0 0.800049)"/>
</clipPath>
</defs>
</svg>
