<svg width="36" height="19" viewBox="0 0 36 19" fill="none" xmlns="http://www.w3.org/2000/svg">
<path d="M0.22 15V4.12H2.84V15H0.22ZM0.22 2.9V0.0999987H2.84V2.9H0.22ZM11.2191 15.24C10.0724 15.24 9.0524 15 8.15906 14.52C7.27906 14.04 6.58573 13.38 6.07906 12.54C5.5724 11.7 5.31906 10.7467 5.31906 9.68V0.0999987H8.03906V9.54C8.03906 10.1533 8.1724 10.7067 8.43906 11.2C8.71906 11.6933 9.09906 12.08 9.57906 12.36C10.0591 12.6267 10.6057 12.76 11.2191 12.76C11.8457 12.76 12.3924 12.6267 12.8591 12.36C13.3391 12.08 13.7124 11.6933 13.9791 11.2C14.2591 10.7067 14.3991 10.1533 14.3991 9.54V0.0999987H17.1191V9.68C17.1191 10.7467 16.8657 11.7 16.3591 12.54C15.8524 13.38 15.1524 14.04 14.2591 14.52C13.3791 15 12.3657 15.24 11.2191 15.24ZM19.6145 19V4.12H22.0745V6.28L21.8345 5.74C22.2079 5.15333 22.7145 4.7 23.3545 4.38C23.9945 4.04667 24.7345 3.88 25.5745 3.88C26.6012 3.88 27.5279 4.13333 28.3545 4.64C29.1812 5.14667 29.8345 5.82667 30.3145 6.68C30.8079 7.53333 31.0545 8.49333 31.0545 9.56C31.0545 10.6133 30.8145 11.5733 30.3345 12.44C29.8545 13.3067 29.2012 13.9933 28.3745 14.5C27.5479 14.9933 26.6079 15.24 25.5545 15.24C24.7679 15.24 24.0412 15.0867 23.3745 14.78C22.7212 14.46 22.2012 14.0067 21.8145 13.42L22.2345 12.9V19H19.6145ZM25.2545 12.84C25.8545 12.84 26.3879 12.7 26.8545 12.42C27.3212 12.14 27.6812 11.7533 27.9345 11.26C28.2012 10.7667 28.3345 10.2 28.3345 9.56C28.3345 8.92 28.2012 8.36 27.9345 7.88C27.6812 7.38667 27.3212 7 26.8545 6.72C26.3879 6.42667 25.8545 6.28 25.2545 6.28C24.6812 6.28 24.1612 6.42 23.6945 6.7C23.2412 6.98 22.8812 7.37333 22.6145 7.88C22.3612 8.37333 22.2345 8.93333 22.2345 9.56C22.2345 10.2 22.3612 10.7667 22.6145 11.26C22.8812 11.7533 23.2412 12.14 23.6945 12.42C24.1612 12.7 24.6812 12.84 25.2545 12.84ZM33.052 15V4.12H35.672V15H33.052ZM33.052 2.9V0.0999987H35.672V2.9H33.052Z" fill="#002556"/>
</svg>
