<svg width="64" height="38" viewBox="0 0 64 38" fill="none" xmlns="http://www.w3.org/2000/svg">
<g clip-path="url(#clip0_424_753)">
<path d="M5.73598 8.64094C4.77598 8.64094 3.98665 8.36361 3.36798 7.80895C2.77065 7.23295 2.47198 6.52895 2.47198 5.69695C2.47198 4.84361 2.77065 4.13961 3.36798 3.58494C3.98665 3.00894 4.77598 2.72095 5.73598 2.72095C6.67465 2.72095 7.44265 3.00894 8.03998 3.58494C8.65865 4.13961 8.96798 4.84361 8.96798 5.69695C8.96798 6.52895 8.65865 7.23295 8.03998 7.80895C7.44265 8.36361 6.67465 8.64094 5.73598 8.64094ZM8.45598 10.497V28.353H2.98398V10.497H8.45598ZM17.7975 5.88895V19.329C17.7975 20.673 18.1282 21.7076 18.7895 22.433C19.4508 23.1583 20.4215 23.521 21.7015 23.521C22.9815 23.521 23.9628 23.1583 24.6455 22.433C25.3282 21.7076 25.6695 20.673 25.6695 19.329V5.88895H31.1415V19.297C31.1415 21.3023 30.7148 22.9983 29.8615 24.385C29.0082 25.7716 27.8562 26.817 26.4055 27.521C24.9762 28.225 23.3762 28.577 21.6055 28.577C19.8348 28.577 18.2455 28.2356 16.8375 27.553C15.4508 26.849 14.3522 25.8036 13.5415 24.417C12.7308 23.009 12.3255 21.3023 12.3255 19.297V5.88895H17.7975ZM40.456 13.025C40.9893 12.193 41.7253 11.521 42.664 11.0089C43.6027 10.4969 44.7013 10.2409 45.96 10.2409C47.432 10.2409 48.7653 10.6143 49.96 11.361C51.1547 12.1076 52.0933 13.1743 52.776 14.561C53.48 15.9476 53.832 17.5583 53.832 19.393C53.832 21.2276 53.48 22.849 52.776 24.257C52.0933 25.6436 51.1547 26.721 49.96 27.489C48.7653 28.2356 47.432 28.609 45.96 28.609C44.7227 28.609 43.624 28.353 42.664 27.841C41.7253 27.329 40.9893 26.6676 40.456 25.857V36.865H34.984V10.497H40.456V13.025ZM48.264 19.393C48.264 18.0276 47.88 16.961 47.112 16.193C46.3653 15.4036 45.4373 15.009 44.328 15.009C43.24 15.009 42.312 15.4036 41.544 16.193C40.7973 16.9823 40.424 18.0596 40.424 19.425C40.424 20.7903 40.7973 21.8676 41.544 22.657C42.312 23.4463 43.24 23.841 44.328 23.841C45.416 23.841 46.344 23.4463 47.112 22.657C47.88 21.8463 48.264 20.7583 48.264 19.393ZM59.4548 8.64094C58.4948 8.64094 57.7054 8.36361 57.0868 7.80895C56.4894 7.23295 56.1908 6.52895 56.1908 5.69695C56.1908 4.84361 56.4894 4.13961 57.0868 3.58494C57.7054 3.00894 58.4948 2.72095 59.4548 2.72095C60.3934 2.72095 61.1614 3.00894 61.7588 3.58494C62.3774 4.13961 62.6868 4.84361 62.6868 5.69695C62.6868 6.52895 62.3774 7.23295 61.7588 7.80895C61.1614 8.36361 60.3934 8.64094 59.4548 8.64094ZM62.1748 10.497V28.353H56.7028V10.497H62.1748Z" fill="#0058CC"/>
</g>
<defs>
<clipPath id="clip0_424_753">
<rect width="61" height="35" fill="white" transform="translate(2 2)"/>
</clipPath>
</defs>
</svg>
