<svg width="25" height="24" viewBox="0 0 25 24" fill="none" xmlns="http://www.w3.org/2000/svg">
<mask id="mask0_449_824" style="mask-type:alpha" maskUnits="userSpaceOnUse" x="0" y="0" width="25" height="24">
<rect x="0.666687" width="24" height="24" fill="#D9D9D9"/>
</mask>
<g mask="url(#mask0_449_824)">
<path d="M12.6667 23C10.1 23 7.82872 22.2208 5.8528 20.6625C3.87687 19.1042 2.59354 17.113 2.0028 14.6889C1.92132 14.3833 1.98243 14.1032 2.18613 13.8486C2.38984 13.594 2.66484 13.4463 3.01113 13.4056C3.33706 13.3648 3.63243 13.4259 3.89724 13.5889C4.16206 13.7519 4.34539 13.9963 4.44724 14.3222C4.93613 16.1556 5.94446 17.6528 7.47224 18.8139C9.00002 19.975 10.7315 20.5556 12.6667 20.5556C15.05 20.5556 17.0718 19.7255 18.732 18.0653C20.3922 16.4051 21.2222 14.3833 21.2222 12C21.2222 9.61667 20.3922 7.59491 18.732 5.93472C17.0718 4.27454 15.05 3.44444 12.6667 3.44444C11.2611 3.44444 9.94724 3.77037 8.72502 4.42222C7.5028 5.07407 6.47409 5.97037 5.63891 7.11111H7.7778C8.12409 7.11111 8.41437 7.22824 8.64863 7.4625C8.88289 7.69676 9.00002 7.98704 9.00002 8.33333C9.00002 8.67963 8.88289 8.96991 8.64863 9.20417C8.41437 9.43843 8.12409 9.55556 7.7778 9.55556H2.88891C2.54261 9.55556 2.25234 9.43843 2.01808 9.20417C1.78382 8.96991 1.66669 8.67963 1.66669 8.33333V3.44444C1.66669 3.09815 1.78382 2.80787 2.01808 2.57361C2.25234 2.33935 2.54261 2.22222 2.88891 2.22222C3.23521 2.22222 3.52548 2.33935 3.75974 2.57361C3.994 2.80787 4.11113 3.09815 4.11113 3.44444V5.09444C5.15002 3.79074 6.41808 2.78241 7.9153 2.06944C9.41252 1.35648 10.9963 1 12.6667 1C14.1945 1 15.6255 1.29028 16.9597 1.87083C18.294 2.45139 19.4551 3.23565 20.4431 4.22361C21.431 5.21157 22.2153 6.37269 22.7959 7.70694C23.3764 9.0412 23.6667 10.4722 23.6667 12C23.6667 13.5278 23.3764 14.9588 22.7959 16.2931C22.2153 17.6273 21.431 18.7884 20.4431 19.7764C19.4551 20.7644 18.294 21.5486 16.9597 22.1292C15.6255 22.7097 14.1945 23 12.6667 23ZM13.8889 11.5111L16.9445 14.5667C17.1685 14.7907 17.2806 15.0759 17.2806 15.4222C17.2806 15.7685 17.1685 16.0537 16.9445 16.2778C16.7204 16.5019 16.4352 16.6139 16.0889 16.6139C15.7426 16.6139 15.4574 16.5019 15.2334 16.2778L11.8111 12.8556C11.6889 12.7333 11.5972 12.5958 11.5361 12.4431C11.475 12.2903 11.4445 12.1324 11.4445 11.9694V7.11111C11.4445 6.76481 11.5616 6.47454 11.7959 6.24028C12.0301 6.00602 12.3204 5.88889 12.6667 5.88889C13.013 5.88889 13.3033 6.00602 13.5375 6.24028C13.7718 6.47454 13.8889 6.76481 13.8889 7.11111V11.5111Z" fill="#2B2D2F"/>
</g>
</svg>
