<svg width="25" height="24" viewBox="0 0 25 24" fill="none" xmlns="http://www.w3.org/2000/svg">
<path d="M14.3333 2H6.33331C5.80288 2 5.29417 2.21071 4.9191 2.58579C4.54403 2.96086 4.33331 3.46957 4.33331 4V20C4.33331 20.5304 4.54403 21.0391 4.9191 21.4142C5.29417 21.7893 5.80288 22 6.33331 22H18.3333C18.8637 22 19.3725 21.7893 19.7475 21.4142C20.1226 21.0391 20.3333 20.5304 20.3333 20V8M14.3333 2L20.3333 8M14.3333 2V8H20.3333M16.3333 13H8.33331M16.3333 17H8.33331M10.3333 9H8.33331" stroke="#2B2D2F" stroke-width="2.5" stroke-linecap="round" stroke-linejoin="round"/>
</svg>
