<svg width="44" height="45" viewBox="0 0 44 45" fill="none" xmlns="http://www.w3.org/2000/svg">
<g clip-path="url(#clip0_563_3485)">
<g clip-path="url(#clip1_563_3485)">
<path d="M34.8333 8.5918H9.16667C7.82991 8.59301 6.54824 9.12457 5.60301 10.0698C4.65778 11.015 4.12621 12.2967 4.125 13.6335V31.9668C4.125 34.748 6.3855 37.0085 9.16667 37.0085H34.8333C37.6145 37.0085 39.875 34.748 39.875 31.9668V13.6335C39.875 10.8523 37.6145 8.5918 34.8333 8.5918ZM9.16667 11.3418H34.8333C36.0965 11.3418 37.125 12.3703 37.125 13.6335V17.7585H6.875V13.6335C6.875 12.3703 7.9035 11.3418 9.16667 11.3418ZM34.8333 34.2585H9.16667C8.5591 34.2577 7.97663 34.0161 7.54702 33.5864C7.1174 33.1568 6.87573 32.5744 6.875 31.9668V20.5085H37.125V31.9668C37.125 33.23 36.0965 34.2585 34.8333 34.2585Z" fill="#01081B"/>
<path d="M16.0417 30.1333C16.0417 30.498 15.8968 30.8477 15.6389 31.1056C15.3811 31.3634 15.0313 31.5083 14.6667 31.5083H11C10.6353 31.5083 10.2856 31.3634 10.0277 31.1056C9.76987 30.8477 9.625 30.498 9.625 30.1333C9.625 29.7686 9.76987 29.4189 10.0277 29.161C10.2856 28.9032 10.6353 28.7583 11 28.7583H14.6667C15.0313 28.7583 15.3811 28.9032 15.6389 29.161C15.8968 29.4189 16.0417 29.7686 16.0417 30.1333ZM23.8333 28.7583H20.1667C19.802 28.7583 19.4523 28.9032 19.1944 29.161C18.9365 29.4189 18.7917 29.7686 18.7917 30.1333C18.7917 30.498 18.9365 30.8477 19.1944 31.1056C19.4523 31.3634 19.802 31.5083 20.1667 31.5083H23.8333C24.198 31.5083 24.5477 31.3634 24.8056 31.1056C25.0635 30.8477 25.2083 30.498 25.2083 30.1333C25.2083 29.7686 25.0635 29.4189 24.8056 29.161C24.5477 28.9032 24.198 28.7583 23.8333 28.7583Z" fill="#2E68FD"/>
</g>
</g>
<defs>
<clipPath id="clip0_563_3485">
<rect width="44" height="44" fill="white" transform="translate(0 0.800049)"/>
</clipPath>
<clipPath id="clip1_563_3485">
<rect width="44" height="44" fill="white" transform="translate(0 0.800049)"/>
</clipPath>
</defs>
</svg>
