<svg width="61" height="60" viewBox="0 0 61 60" fill="none" xmlns="http://www.w3.org/2000/svg">
<g clip-path="url(#clip0_563_3388)">
<path d="M47.625 12.5V30C47.6091 30.4867 47.4046 30.9481 47.0547 31.2868C46.7048 31.6254 46.2369 31.8148 45.75 31.8148C45.2631 31.8148 44.7952 31.6254 44.4453 31.2868C44.0954 30.9481 43.8909 30.4867 43.875 30V12.5C43.8737 11.6716 43.544 10.8775 42.9582 10.2918C42.3725 9.70599 41.5784 9.37632 40.75 9.375H15.75C14.9216 9.37632 14.1275 9.70599 13.5418 10.2918C12.956 10.8775 12.6263 11.6716 12.625 12.5V45C12.6263 45.8284 12.956 46.6225 13.5418 47.2082C14.1275 47.794 14.9216 48.1237 15.75 48.125H30.75C31.2367 48.1409 31.6981 48.3454 32.0368 48.6953C32.3754 49.0452 32.5648 49.5131 32.5648 50C32.5648 50.4869 32.3754 50.9548 32.0368 51.3047C31.6981 51.6546 31.2367 51.8591 30.75 51.875H15.75C13.927 51.8737 12.1791 51.1489 10.8901 49.8599C9.60108 48.5709 8.87632 46.823 8.875 45V12.5C8.87632 10.677 9.60108 8.92913 10.8901 7.6401C12.1791 6.35108 13.927 5.62632 15.75 5.625H40.75C42.573 5.62632 44.3209 6.35108 45.6099 7.6401C46.8989 8.92913 47.6237 10.677 47.625 12.5ZM38.25 13.125H18.25C17.7633 13.1409 17.3019 13.3454 16.9632 13.6953C16.6246 14.0452 16.4352 14.5131 16.4352 15C16.4352 15.4869 16.6246 15.9548 16.9632 16.3047C17.3019 16.6546 17.7633 16.8591 18.25 16.875H38.25C38.7367 16.8591 39.1981 16.6546 39.5368 16.3047C39.8754 15.9548 40.0648 15.4869 40.0648 15C40.0648 14.5131 39.8754 14.0452 39.5368 13.6953C39.1981 13.3454 38.7367 13.1409 38.25 13.125ZM30.125 22.5C30.125 21.465 29.285 20.625 28.25 20.625H18.25C17.7633 20.6409 17.3019 20.8454 16.9632 21.1953C16.6246 21.5452 16.4352 22.0131 16.4352 22.5C16.4352 22.9869 16.6246 23.4548 16.9632 23.8047C17.3019 24.1546 17.7633 24.3591 18.25 24.375H28.25C29.285 24.375 30.125 23.535 30.125 22.5ZM18.25 28.125C17.7633 28.1409 17.3019 28.3454 16.9632 28.6953C16.6246 29.0452 16.4352 29.5131 16.4352 30C16.4352 30.4869 16.6246 30.9548 16.9632 31.3047C17.3019 31.6546 17.7633 31.8591 18.25 31.875H20.75C21.2367 31.8591 21.6981 31.6546 22.0368 31.3047C22.3754 30.9548 22.5648 30.4869 22.5648 30C22.5648 29.5131 22.3754 29.0452 22.0368 28.6953C21.6981 28.3454 21.2367 28.1409 20.75 28.125H18.25Z" fill="#01081B"/>
<mask id="mask0_563_3388" style="mask-type:luminance" maskUnits="userSpaceOnUse" x="23" y="26" width="30" height="29">
<path d="M23.75 26H52.75V55H23.75V26Z" fill="white"/>
</mask>
<g mask="url(#mask0_563_3388)">
<path d="M34.709 44.959L38.668 41M38.668 41L42.627 37.041M38.668 41L34.709 37.041M38.668 41L42.627 44.959" stroke="#2E68FD" stroke-width="3.475" stroke-linecap="round" stroke-linejoin="round"/>
<path d="M38.25 52.583C44.923 52.583 50.333 47.173 50.333 40.5C50.333 33.827 44.923 28.417 38.25 28.417C31.577 28.417 26.167 33.827 26.167 40.5C26.167 47.173 31.577 52.583 38.25 52.583Z" stroke="#2E68FD" stroke-width="3.867" stroke-linecap="round" stroke-linejoin="round"/>
</g>
</g>
<defs>
<clipPath id="clip0_563_3388">
<rect width="60" height="60" fill="white" transform="translate(0.5)"/>
</clipPath>
</defs>
</svg>
