<svg width="61" height="60" viewBox="0 0 61 60" fill="none" xmlns="http://www.w3.org/2000/svg">
<path d="M38.4951 17.5V12.5C38.4951 10.777 36.8901 9.375 34.9201 9.375H15.8181C13.8481 9.375 12.2431 10.777 12.2431 12.5V47.5C12.2431 49.222 13.8471 50.625 15.8181 50.625H34.9201C36.8901 50.625 38.4951 49.222 38.4951 47.5V37.5C38.511 37.0133 38.7155 36.5519 39.0654 36.2132C39.4153 35.8746 39.8832 35.6852 40.3701 35.6852C40.8571 35.6852 41.3249 35.8746 41.6748 36.2132C42.0247 36.5519 42.2292 37.0133 42.2451 37.5V47.5C42.2451 51.292 38.9601 54.375 34.9201 54.375H15.8181C11.7801 54.375 8.49312 51.292 8.49312 47.5V12.5C8.49312 8.707 11.7781 5.625 15.8181 5.625H34.9201C38.9581 5.625 42.2451 8.707 42.2451 12.5V17.5C42.2292 17.9867 42.0247 18.4481 41.6748 18.7868C41.3249 19.1254 40.8571 19.3148 40.3701 19.3148C39.8832 19.3148 39.4153 19.1254 39.0654 18.7868C38.7155 18.4481 38.511 17.9867 38.4951 17.5Z" fill="#01081B"/>
<path d="M45.3701 15.625H27.8701C26.0472 15.6263 24.2992 16.3511 23.0102 17.6401C21.7212 18.9291 20.9964 20.677 20.9951 22.5V32.5C20.9964 34.323 21.7212 36.0709 23.0102 37.3599C24.2992 38.6489 26.0472 39.3737 27.8701 39.375H45.3701C47.1931 39.3737 48.941 38.6489 50.23 37.3599C51.519 36.0709 52.2438 34.323 52.2451 32.5V22.5C52.2438 20.677 51.519 18.9291 50.23 17.6401C48.941 16.3511 47.1931 15.6263 45.3701 15.625ZM27.8701 19.375H45.3701C46.1985 19.3763 46.9926 19.706 47.5784 20.2918C48.1641 20.8775 48.4938 21.6716 48.4951 22.5V23.125H24.7451V22.5C24.7464 21.6716 25.0761 20.8775 25.6619 20.2918C26.2476 19.706 27.0417 19.3763 27.8701 19.375ZM45.3701 35.625H27.8701C27.0417 35.6237 26.2476 35.294 25.6619 34.7082C25.0761 34.1225 24.7464 33.3284 24.7451 32.5V26.875H48.4951V32.5C48.4938 33.3284 48.1641 34.1225 47.5784 34.7082C46.9926 35.294 46.1985 35.6237 45.3701 35.625Z" fill="#2E68FD"/>
</svg>
