<svg width="61" height="60" viewBox="0 0 61 60" fill="none" xmlns="http://www.w3.org/2000/svg">
<g clip-path="url(#clip0_563_3416)">
<path d="M45.75 8.125H13.25C11.427 8.12632 9.67913 8.85108 8.3901 10.1401C7.10108 11.4291 6.37632 13.177 6.375 15V35C6.37632 36.823 7.10108 38.5709 8.3901 39.8599C9.67913 41.1489 11.427 41.8737 13.25 41.875H31.825C32.3117 41.8591 32.7731 41.6546 33.1118 41.3047C33.4504 40.9548 33.6398 40.4869 33.6398 40C33.6398 39.5131 33.4504 39.0452 33.1118 38.6953C32.7731 38.3454 32.3117 38.1409 31.825 38.125H13.25C12.4216 38.1237 11.6275 37.794 11.0418 37.2082C10.456 36.6225 10.1263 35.8284 10.125 35V21.875H48.875V29.575C48.8909 30.0617 49.0954 30.5231 49.4453 30.8618C49.7952 31.2004 50.2631 31.3898 50.75 31.3898C51.2369 31.3898 51.7048 31.2004 52.0547 30.8618C52.4046 30.5231 52.6091 30.0617 52.625 29.575V15C52.6237 13.177 51.8989 11.4291 50.6099 10.1401C49.3209 8.85108 47.573 8.12632 45.75 8.125ZM10.125 18.125V15C10.1263 14.1716 10.456 13.3775 11.0418 12.7918C11.6275 12.206 12.4216 11.8763 13.25 11.875H45.75C46.5784 11.8763 47.3725 12.206 47.9582 12.7918C48.544 13.3775 48.8737 14.1716 48.875 15V18.125H10.125ZM25.75 30.625C26.2367 30.6409 26.6981 30.8454 27.0368 31.1953C27.3754 31.5452 27.5648 32.0131 27.5648 32.5C27.5648 32.9869 27.3754 33.4548 27.0368 33.8047C26.6981 34.1546 26.2367 34.3591 25.75 34.375H23.25C22.7633 34.3591 22.3019 34.1546 21.9632 33.8047C21.6246 33.4548 21.4352 32.9869 21.4352 32.5C21.4352 32.0131 21.6246 31.5452 21.9632 31.1953C22.3019 30.8454 22.7633 30.6409 23.25 30.625H25.75ZM18.25 30.625C18.7367 30.6409 19.1981 30.8454 19.5368 31.1953C19.8754 31.5452 20.0648 32.0131 20.0648 32.5C20.0648 32.9869 19.8754 33.4548 19.5368 33.8047C19.1981 34.1546 18.7367 34.3591 18.25 34.375H15.75C15.2633 34.3591 14.8019 34.1546 14.4632 33.8047C14.1246 33.4548 13.9352 32.9869 13.9352 32.5C13.9352 32.0131 14.1246 31.5452 14.4632 31.1953C14.8019 30.8454 15.2633 30.6409 15.75 30.625H18.25Z" fill="#01081B"/>
<path d="M52.615 28.4599L44.18 23.7019C43.5164 23.3227 42.7653 23.1233 42.001 23.1233C41.2367 23.1233 40.4856 23.3227 39.822 23.7019L31.385 28.4599C29.837 29.3349 28.875 31.0449 28.875 32.9299V33.7499C28.875 42.2849 34.063 49.7099 41.49 51.8049C41.8234 51.8994 42.1766 51.8994 42.51 51.8049C49.938 49.7099 55.125 42.2849 55.125 33.7499V32.9299C55.125 31.0449 54.163 29.3349 52.615 28.4599ZM51.375 33.7499C51.375 40.4129 47.547 46.2029 42 48.0399C36.453 46.2049 32.625 40.4129 32.625 33.7499V32.9299C32.625 32.4129 32.867 31.9299 33.225 31.7269L41.665 26.9699C41.7667 26.9104 41.8822 26.8787 42 26.8779C42.1184 26.8787 42.2346 26.9105 42.337 26.9699L50.775 31.7279C51.135 31.9299 51.375 32.4119 51.375 32.9299V33.7499ZM47.075 33.6749C47.807 34.4079 47.807 35.5949 47.075 36.3279L42.075 41.3279C41.9013 41.5024 41.6948 41.6408 41.4674 41.7353C41.24 41.8297 40.9962 41.8784 40.75 41.8784C40.5038 41.8784 40.26 41.8297 40.0326 41.7353C39.8052 41.6408 39.5987 41.5024 39.425 41.3279L36.925 38.8279C36.7488 38.6542 36.6087 38.4473 36.5128 38.2192C36.4169 37.991 36.3671 37.7462 36.3663 37.4987C36.3654 37.2513 36.4135 37.0061 36.5078 36.7773C36.6021 36.5485 36.7407 36.3406 36.9157 36.1656C37.0907 35.9907 37.2986 35.852 37.5274 35.7577C37.7561 35.6634 38.0013 35.6153 38.2488 35.6162C38.4962 35.6171 38.7411 35.6669 38.9692 35.7628C39.1973 35.8587 39.4042 35.9987 39.578 36.1749L40.752 37.3499L44.427 33.6749C44.7788 33.3231 45.256 33.1255 45.7535 33.1255C46.251 33.1255 46.7282 33.3231 47.08 33.6749H47.075Z" fill="#2E68FD"/>
</g>
<defs>
<clipPath id="clip0_563_3416">
<rect width="60" height="60" fill="white" transform="translate(0.5)"/>
</clipPath>
</defs>
</svg>
