<svg width="61" height="60" viewBox="0 0 61 60" fill="none" xmlns="http://www.w3.org/2000/svg">
<path d="M47.75 49.375H15.25C10.08 49.375 5.875 45.17 5.875 40V20C5.875 14.83 10.08 10.625 15.25 10.625H47.75C49.573 10.6263 51.3209 11.3511 52.6099 12.6401C53.8989 13.9291 54.6237 15.677 54.625 17.5V42.5C54.6237 44.323 53.8989 46.0709 52.6099 47.3599C51.3209 48.6489 49.573 49.3737 47.75 49.375ZM15.25 14.375C13.7586 14.3763 12.3286 14.9694 11.274 16.024C10.2194 17.0786 9.62632 18.5086 9.625 20V40C9.62632 41.4914 10.2194 42.9214 11.274 43.976C12.3286 45.0306 13.7586 45.6237 15.25 45.625H47.75C48.5784 45.6237 49.3725 45.294 49.9582 44.7082C50.544 44.1225 50.8737 43.3284 50.875 42.5V17.5C50.8737 16.6716 50.544 15.8775 49.9582 15.2918C49.3725 14.706 48.5784 14.3763 47.75 14.375H15.25Z" fill="#01081B"/>
<path d="M52.75 20.625H42.95C40.4656 20.6331 38.0848 21.6213 36.325 23.375C35.4513 24.2426 34.7584 25.2748 34.2863 26.412C33.8143 27.5492 33.5725 28.7687 33.575 30C33.575 35.17 37.78 39.375 42.95 39.375H52.75C53.785 39.375 54.625 38.535 54.625 37.5V22.5C54.625 21.465 53.785 20.625 52.75 20.625ZM50.875 35.625H42.95C41.4586 35.6237 40.0286 35.0306 38.974 33.976C37.9194 32.9214 37.3263 31.4914 37.325 30C37.325 28.5 37.91 27.09 38.975 26.025C40.0313 24.9735 41.4595 24.3807 42.95 24.375H50.875V35.625ZM44.075 28.675C44.425 29.025 44.625 29.5 44.625 30C44.625 30.25 44.575 30.475 44.475 30.725C44.3896 30.9531 44.2527 31.1584 44.075 31.325C43.901 31.499 43.6944 31.637 43.4671 31.7312C43.2397 31.8254 42.9961 31.8738 42.75 31.8738C42.5039 31.8738 42.2603 31.8254 42.0329 31.7312C41.8056 31.637 41.599 31.499 41.425 31.325C41.251 31.151 41.113 30.9444 41.0188 30.7171C40.9246 30.4897 40.8762 30.2461 40.8762 30C40.8762 29.7539 40.9246 29.5103 41.0188 29.2829C41.113 29.0556 41.251 28.849 41.425 28.675C42.125 27.975 43.375 27.975 44.075 28.675Z" fill="#2E68FD"/>
</svg>
