<svg width="130" height="34" viewBox="0 0 130 34" fill="none" xmlns="http://www.w3.org/2000/svg">
<g clip-path="url(#clip0_563_3459)">
<g clip-path="url(#clip1_563_3459)">
<path d="M51.8178 22.0355H60.4168V19.6804H54.6569V8.52598H51.8169V22.0355H51.8178ZM66.2431 22.2329C69.2985 22.2329 71.2011 20.1292 71.2011 17.0092C71.2011 13.8683 69.2985 11.7712 66.2421 11.7712C63.1866 11.7712 61.2841 13.8683 61.2841 17.0092C61.2841 20.1292 63.1857 22.2339 66.2421 22.2339L66.2431 22.2329ZM66.2554 20.0561C64.8453 20.0561 64.1242 18.7561 64.1242 16.9893C64.1242 15.2214 64.8453 13.9148 66.2554 13.9148C67.6399 13.9148 68.361 15.2214 68.361 16.9893C68.361 18.7571 67.6399 20.0561 66.2554 20.0561ZM77.0027 26.0466C79.8817 26.0466 81.9275 24.7276 81.9275 22.1342V11.9031H79.1539V13.6055H79.0495C78.6747 12.7799 77.8548 11.7712 76.1696 11.7712C73.9586 11.7712 72.0893 13.4992 72.0893 16.9494C72.0893 20.3209 73.9064 21.8904 76.1762 21.8904C77.7827 21.8904 78.6813 21.079 79.0485 20.2412H79.1662V22.0953C79.1662 23.4864 78.2809 24.0282 77.0682 24.0282C75.8346 24.0282 75.2121 23.4874 74.9825 22.8734L72.3986 23.2226C72.7326 24.8196 74.2869 26.0466 77.0027 26.0466ZM77.0615 19.78C75.6904 19.78 74.9426 18.685 74.9426 16.9361C74.9426 15.2148 75.678 14.0078 77.0615 14.0078C78.4185 14.0078 79.1795 15.1617 79.1795 16.9361C79.1795 18.7239 78.4061 19.78 77.0615 19.78ZM88.1485 22.2329C91.205 22.2329 93.1075 20.1292 93.1075 17.0092C93.1075 13.8683 91.205 11.7712 88.1485 11.7712C85.0931 11.7712 83.1905 13.8683 83.1905 17.0092C83.1905 20.1292 85.0921 22.2329 88.1485 22.2329ZM88.1618 20.0561C86.7517 20.0561 86.0306 18.7561 86.0306 16.9893C86.0306 15.2214 86.7517 13.9148 88.1618 13.9148C89.5463 13.9148 90.2674 15.2214 90.2674 16.9893C90.2674 18.7571 89.5463 20.0561 88.1618 20.0561ZM94.3696 22.0355H97.1641V11.9031H94.3696V22.0355ZM95.7739 10.5974C96.6061 10.5974 97.2884 9.95692 97.2884 9.17218C97.2884 8.39408 96.6061 7.75356 95.7739 7.75356C94.9474 7.75356 94.2652 8.39408 94.2652 9.17218C94.2652 9.95692 94.9474 10.5974 95.7739 10.5974ZM98.8484 25.835H101.642V20.4129H101.727C102.115 21.2574 102.96 22.2006 104.586 22.2006C106.883 22.2006 108.672 20.3731 108.672 16.9817C108.672 13.4992 106.803 11.7712 104.593 11.7712C102.908 11.7712 102.101 12.7809 101.727 13.6055H101.602V11.9031H98.8484V25.835ZM101.583 16.9693C101.583 15.1617 102.343 14.0078 103.701 14.0078C105.086 14.0078 105.82 15.2148 105.82 16.9693C105.82 18.7371 105.072 19.9641 103.701 19.9641C102.356 19.9641 101.583 18.777 101.583 16.9693ZM118.364 14.7925C118.114 12.926 116.619 11.7712 114.074 11.7712C111.496 11.7712 109.798 12.9716 109.804 14.9244C109.798 16.4417 110.748 17.4248 112.716 17.8205L114.461 18.1697C115.339 18.3481 115.74 18.6717 115.752 19.1793C115.74 19.78 115.091 20.2079 114.113 20.2079C113.116 20.2079 112.454 19.78 112.284 18.9554L109.536 19.0996C109.798 21.0392 111.437 22.2339 114.107 22.2339C116.716 22.2339 118.586 20.894 118.592 18.8956C118.586 17.4314 117.635 16.5537 115.681 16.1514L113.857 15.7813C112.92 15.5773 112.571 15.2537 112.579 14.766C112.571 14.1587 113.254 13.7639 114.119 13.7639C115.091 13.7639 115.668 14.2982 115.804 14.9501L118.364 14.7925ZM126.258 17.7218C126.265 19.0806 125.34 19.7923 124.336 19.7923C123.281 19.7923 122.599 19.0474 122.592 17.8537V11.9031H119.798V18.3547C119.804 20.7232 121.182 22.1674 123.208 22.1674C124.723 22.1674 125.812 21.3827 126.265 20.1947H126.369V22.0355H129.052V11.9031H126.258V17.7218ZM17.0423 -0.131836H25.7504L22.2547 9.69218C16.1029 10.7796 11.3982 16.7672 11.3982 23.9884C11.3982 27.246 12.3557 30.2531 13.9717 32.6709H2.40927L12.981 2.96065C13.6453 1.0932 15.2546 -0.131836 17.0433 -0.131836H17.0423Z" fill="#525B6E"/>
<path d="M25.7504 -0.131836L23.2937 6.7724L22.5536 -0.131836H25.7514H25.7504Z" fill="#525B6E"/>
<path d="M31.2617 -0.131836H22.5536L26.0342 9.65137C32.3083 10.6183 37.142 16.6685 37.142 23.9884C37.142 27.246 36.1846 30.2531 34.5686 32.6709H45.8947L35.3249 2.96065C34.6607 1.0932 33.0513 -0.131836 31.2617 -0.131836Z" fill="#525B6E"/>
<path d="M15.4899 31.7258C14.002 29.5946 13.1148 26.9073 13.1148 23.9884C13.1148 17.0614 18.1099 11.4458 24.2702 11.4458C30.4314 11.4458 35.4264 17.0614 35.4264 23.9884C35.4264 26.9082 34.5392 29.5946 33.0504 31.7258C30.5168 29.8287 27.4353 28.8063 24.2702 28.8127C21.105 28.8063 18.0235 29.8287 15.4899 31.7258Z" fill="#525B6E"/>
</g>
</g>
<defs>
<clipPath id="clip0_563_3459">
<rect width="130" height="33.19" fill="white" transform="translate(0 0.305054)"/>
</clipPath>
<clipPath id="clip1_563_3459">
<rect width="130" height="33.19" fill="white" transform="translate(0 0.305054)"/>
</clipPath>
</defs>
</svg>
