<svg width="17" height="23" viewBox="0 0 17 23" fill="none" xmlns="http://www.w3.org/2000/svg">
<path d="M8.5 4.41666C4.59 4.41666 1.41667 7.58999 1.41667 11.5C1.41667 15.41 4.59 18.5833 8.5 18.5833C12.41 18.5833 15.5833 15.41 15.5833 11.5C15.5833 7.58999 12.41 4.41666 8.5 4.41666ZM8.5 17.1667C5.37626 17.1667 2.83334 14.6237 2.83334 11.5C2.83334 8.37624 5.37626 5.83332 8.5 5.83332C11.6238 5.83332 14.1667 8.37624 14.1667 11.5C14.1667 14.6237 11.6238 17.1667 8.5 17.1667ZM11.7513 8.36916L7.08334 13.0371L5.24875 11.2096L4.25001 12.2083L7.08334 15.0417L12.75 9.37499L11.7513 8.36916Z" fill="#4C4C4D"/>
</svg>
