<svg width="165" height="38" viewBox="0 0 165 38" fill="none" xmlns="http://www.w3.org/2000/svg">
<g clip-path="url(#clip0_563_3448)">
<g clip-path="url(#clip1_563_3448)">
<path d="M28.0443 16.6772C27.5712 17.1525 27.2087 17.7263 26.9828 18.3578C26.7569 18.9892 26.6731 19.6627 26.7374 20.3303L26.715 20.3079C26.7816 21.0938 26.6756 21.8848 26.4043 22.6254C26.1329 23.3661 25.7029 24.0384 25.1443 24.5953C24.5855 25.153 23.9119 25.5822 23.1703 25.853C22.4287 26.1238 21.637 26.2296 20.8503 26.1631L20.8718 26.1856C20.1689 26.1196 19.4602 26.2165 18.8008 26.469C18.1414 26.7214 17.5491 27.1225 17.07 27.6411C16.5909 28.1597 16.2378 28.7818 16.0382 29.4591C15.8386 30.1363 15.7979 30.8505 15.9193 31.546C16.0825 32.4766 16.529 33.334 17.198 34.0011C17.867 34.6682 18.7256 35.1124 19.6566 35.2731C20.5875 35.4347 21.5457 35.306 22.4009 34.9043C23.2561 34.5027 23.967 33.8475 24.437 33.0278C24.9066 32.2084 25.1106 31.2644 25.0217 30.3243L25.046 30.3467C24.9793 29.5608 25.0853 28.7699 25.3565 28.0293C25.6276 27.2887 26.0574 26.6163 26.6158 26.0593C27.1746 25.5014 27.8484 25.0721 28.5902 24.8013C29.332 24.5306 30.1238 24.4248 30.9107 24.4914L30.8873 24.469C31.6559 24.5376 32.4294 24.4116 33.1365 24.1026C33.8436 23.7936 34.4616 23.3115 34.9333 22.7009C35.6442 21.7788 35.9767 20.6203 35.8631 19.4616C35.7494 18.3029 35.1981 17.2311 34.3215 16.4648C33.7406 15.9565 33.0408 15.6029 32.287 15.4368C31.5332 15.2706 30.7496 15.2973 30.0089 15.5144C29.2679 15.7309 28.5934 16.1308 28.048 16.6772H28.0443Z" fill="#525B6E"/>
<path d="M18.8268 23.2453L18.8034 23.2229C19.4721 23.29 20.1473 23.208 20.7804 22.9828C21.4135 22.7576 21.9889 22.3949 22.465 21.9207C22.9401 21.4465 23.3039 20.8728 23.5301 20.2408C23.7563 19.6089 23.8392 18.9345 23.7728 18.2666L23.7962 18.2891C23.7297 17.5031 23.8358 16.7122 24.1072 15.9716C24.3785 15.231 24.8084 14.5586 25.3669 14.0017C25.9256 13.4438 26.5992 13.0145 27.3408 12.7437C28.0824 12.4729 28.8742 12.3672 29.6608 12.4338L29.6375 12.4113C30.5785 12.4994 31.5238 12.2956 32.345 11.8276C33.1661 11.3597 33.8232 10.6502 34.227 9.79566C34.6294 8.94148 34.758 7.98384 34.5952 7.05377C34.4324 6.12371 33.9862 5.26666 33.3177 4.59989C32.6486 3.93163 31.7897 3.48593 30.8581 3.32355C29.9265 3.16116 28.9674 3.28998 28.1117 3.69246C27.2573 4.09416 26.5474 4.74938 26.0787 5.56893C25.61 6.38849 25.4052 7.33257 25.4923 8.27266L25.4698 8.24928C25.5364 9.03522 25.4304 9.82622 25.159 10.5668C24.8877 11.3075 24.4577 11.9798 23.8991 12.5367C23.3403 13.0946 22.6665 13.5239 21.9247 13.7945C21.1829 14.0651 20.391 14.1706 19.6042 14.1036L19.6267 14.128C18.9579 14.0607 18.2825 14.1426 17.6492 14.3677C17.0159 14.5929 16.4404 14.9558 15.9642 15.4302C15.4891 15.9043 15.1254 16.4781 14.8994 17.1101C14.6734 17.7421 14.5907 18.4164 14.6573 19.0842L14.6348 19.0618C14.7012 19.8478 14.5948 20.6388 14.3234 21.3794C14.0519 22.12 13.6218 22.7923 13.0632 23.3492C12.5044 23.9069 11.8308 24.3361 11.0892 24.6069C10.3476 24.8776 9.55594 24.9835 8.76926 24.9171L8.79172 24.9395C7.85086 24.8518 6.9058 25.0557 6.08487 25.5237C5.26394 25.9916 4.60694 26.7009 4.20309 27.5552C3.8006 28.4093 3.67194 29.367 3.83472 30.2971C3.99749 31.2272 4.44375 32.0843 5.11239 32.751C5.78144 33.419 6.64017 33.8646 7.5716 34.027C8.50303 34.1894 9.46188 34.0607 10.3175 33.6584C11.172 33.2568 11.8819 32.6016 12.3507 31.782C12.8194 30.9624 13.0241 30.0183 12.9369 29.0782L12.9612 29.1006C12.8945 28.3147 13.0005 27.5237 13.2718 26.783C13.5432 26.0424 13.9733 25.3701 14.5319 24.8132C15.0906 24.2554 15.7643 23.8262 16.5059 23.5554C17.2475 23.2846 18.0401 23.1788 18.8268 23.2453Z" fill="#525B6E"/>
<path d="M10.4522 20.74C10.9254 20.2648 11.2878 19.6909 11.5136 19.0594C11.7393 18.4279 11.8229 17.7544 11.7582 17.0869L11.7816 17.1093C11.715 16.3232 11.8212 15.532 12.0927 14.7912C12.3642 14.0504 12.7944 13.378 13.3532 12.821C13.9124 12.2632 14.5866 11.834 15.3287 11.5636C16.0708 11.2931 16.863 11.1878 17.65 11.255L17.6256 11.2325C18.5662 11.32 19.5109 11.116 20.3315 10.648C21.1521 10.1801 21.8088 9.47092 22.2124 8.61687C22.6145 7.76294 22.7429 6.80565 22.5801 5.87595C22.4174 4.94624 21.9713 4.08952 21.3031 3.42297C20.8034 2.92386 20.1954 2.5466 19.5263 2.32047C18.8572 2.09435 18.145 2.02543 17.4449 2.11908C16.7449 2.21273 16.0758 2.46642 15.4897 2.86046C14.9036 3.2545 14.4161 3.77831 14.0651 4.39122C13.5961 5.21022 13.3915 6.15416 13.4795 7.09387L13.4571 7.07142C13.5235 7.85721 13.4174 8.64803 13.1461 9.38848C12.8747 10.1289 12.4448 10.8011 11.8864 11.3579C11.3277 11.9157 10.6541 12.345 9.91245 12.6158C9.17084 12.8866 8.37909 12.9924 7.59241 12.9258L7.61486 12.9482C6.84615 12.8796 6.07254 13.0057 5.36541 13.3149C4.65828 13.6241 4.04042 14.1064 3.56882 14.7173C3.09769 15.3281 2.7887 16.0483 2.67059 16.8106C2.55248 17.573 2.62908 18.3528 2.89327 19.0776C3.15747 19.8024 3.60067 20.4486 4.18166 20.9562C4.76265 21.4637 5.46256 21.8161 6.21628 21.9805C6.96993 22.1461 7.75315 22.1194 8.49375 21.9028C9.23436 21.6862 9.90852 21.2866 10.4541 20.7409L10.4522 20.74ZM49.1595 8.30067H52.8706V26.3278H49.1595V8.30067ZM54.9727 20.1553C54.9678 18.8596 55.3481 17.5916 56.0653 16.5125C56.603 15.7055 57.3127 15.0277 58.1435 14.5276C58.9743 14.0275 59.9055 13.7176 60.8702 13.6201C61.835 13.5226 62.8093 13.64 63.7234 13.9638C64.6374 14.2876 65.4683 14.8097 66.1566 15.4928C67.0751 16.4065 67.7016 17.5725 67.9566 18.8428C68.2116 20.113 68.0836 21.4304 67.5888 22.6279C67.0932 23.8256 66.2532 24.8492 65.1752 25.5691C64.0959 26.2895 62.8273 26.674 61.5296 26.6739C60.6683 26.6839 59.8136 26.5224 59.0154 26.1988C58.2171 25.8751 57.4913 25.3959 56.8802 24.7889C56.2701 24.1822 55.7871 23.4599 55.4596 22.6643C55.132 21.8687 54.9665 21.0157 54.9727 20.1553ZM64.3745 20.1553C64.359 19.5965 64.1789 19.0547 63.8567 18.5978C63.5345 18.141 63.0845 17.7895 62.5633 17.5874C62.042 17.3844 61.4724 17.3393 60.9256 17.4577C60.3788 17.5762 59.879 17.8529 59.4883 18.2535C59.1967 18.5527 58.9747 18.9126 58.8382 19.3075C58.7017 19.7025 58.6541 20.1226 58.6988 20.5381C58.7435 20.9535 58.8794 21.354 59.0967 21.7109C59.314 22.0677 59.6075 22.3722 59.9561 22.6026C60.422 22.9113 60.9692 23.076 61.5287 23.076C62.1057 23.0909 62.6731 22.9259 63.1522 22.6039C63.6312 22.2819 63.9983 21.8188 64.2023 21.2789C64.337 20.9206 64.395 20.537 64.3745 20.1553ZM82.8768 13.982V25.7066C82.8768 29.8555 79.6353 31.6096 76.3451 31.6096C75.1874 31.6956 74.0283 31.4618 72.9944 30.9339C71.9605 30.406 71.0916 29.6042 70.4823 28.616L73.649 26.788C73.9046 27.3036 74.3116 27.7289 74.8154 28.007C75.3193 28.285 75.8961 28.4025 76.4686 28.3438C77.0203 28.4199 77.5815 28.3073 78.0611 28.0242C78.5408 27.7411 78.9105 27.3041 79.1104 26.7843C79.2424 26.4391 79.2947 26.0696 79.2639 25.7019V24.5728C78.8291 25.104 78.2759 25.5259 77.6487 25.8047C77.0214 26.0835 76.3375 26.2114 75.6519 26.1781C74.0204 26.1268 72.4727 25.4435 71.3355 24.2725C70.1998 23.1025 69.5646 21.5361 69.5646 19.9055C69.5646 18.275 70.1998 16.7086 71.3355 15.5386C72.4728 14.3679 74.0205 13.685 75.6519 13.634C76.3374 13.6014 77.0211 13.7296 77.6482 14.0084C78.2754 14.2871 78.8287 14.7086 79.2639 15.2393V13.9792L82.8768 13.982ZM79.2657 19.9074C79.2908 19.31 79.1362 18.7188 78.8218 18.2102C78.5075 17.7016 78.0479 17.2989 77.5023 17.0541C77.0945 16.8708 76.651 16.7809 76.204 16.7908C75.757 16.8008 75.3178 16.9105 74.9186 17.1118C74.5194 17.3132 74.1702 17.6011 73.8965 17.9547C73.6228 18.3082 73.4315 18.7184 73.3365 19.1553C73.2107 19.7398 73.2631 20.3487 73.4871 20.903C73.7111 21.4574 74.0963 21.9318 74.5929 22.2649C75.0887 22.5989 75.6744 22.7775 76.2731 22.7766C76.6628 22.8036 77.0538 22.7489 77.4211 22.616C77.7884 22.483 78.1238 22.2749 78.406 22.0048C78.6878 21.7346 78.91 21.4084 79.058 21.0472C79.2061 20.6859 79.2769 20.2977 79.2657 19.9074ZM84.9788 20.1553C84.9736 18.8597 85.3536 17.5917 86.0706 16.5125C86.6081 15.7054 87.3178 15.0274 88.1486 14.5272C88.9793 14.027 89.9106 13.7171 90.8754 13.6196C91.8402 13.5221 92.8146 13.6395 93.7287 13.9634C94.6427 14.2873 95.4736 14.8096 96.1618 15.4928C97.0803 16.4066 97.7068 17.5724 97.9619 18.8427C98.2171 20.1129 98.0894 21.4303 97.595 22.6279C97.099 23.8265 96.2583 24.851 95.1794 25.5713C94.1005 26.2916 92.8321 26.6754 91.5348 26.6739C90.6735 26.6839 89.8189 26.5223 89.0206 26.1987C88.2224 25.8751 87.4966 25.3958 86.8854 24.7889C86.2754 24.1821 85.7926 23.4598 85.4652 22.6642C85.1379 21.8686 84.9725 21.0156 84.9788 20.1553ZM94.3797 20.1553C94.3646 19.5965 94.1847 19.0547 93.8626 18.5978C93.5406 18.1409 93.0907 17.7894 92.5695 17.5874C92.0481 17.3845 91.4786 17.3395 90.9318 17.4579C90.385 17.5763 89.8852 17.853 89.4945 18.2535C89.1042 18.6539 88.8408 19.1606 88.7373 19.7101C88.6339 20.2596 88.6949 20.8275 88.9128 21.3424C89.1306 21.8574 89.4957 22.2966 89.9621 22.605C90.4286 22.9134 90.9757 23.0772 91.5348 23.076C92.1117 23.0908 92.679 22.9258 93.1579 22.6038C93.6368 22.2818 94.0037 21.8188 94.2075 21.2789C94.3423 20.9206 94.4012 20.537 94.3797 20.1553ZM99.8215 10.6712C99.8214 10.3421 99.8944 10.017 100.035 9.71948C100.176 9.42197 100.381 9.15945 100.636 8.95089C100.891 8.74233 101.188 8.59293 101.508 8.51349C101.827 8.43404 102.16 8.42654 102.483 8.49151C102.914 8.57745 103.311 8.78917 103.622 9.09998C103.933 9.41079 104.146 9.8068 104.232 10.2381C104.318 10.6694 104.274 11.1166 104.106 11.5229C103.937 11.9291 103.652 12.2761 103.286 12.5198C102.92 12.763 102.489 12.894 102.049 12.894C101.461 12.8881 100.898 12.6522 100.482 12.2368C100.066 11.8213 99.8285 11.2594 99.8215 10.6712ZM100.197 13.981H103.91V26.3296H100.192L100.197 13.981ZM119.934 20.1553C119.976 20.9716 119.856 21.7881 119.582 22.558C119.307 23.328 118.884 24.0361 118.335 24.642C117.785 25.2481 117.121 25.7396 116.38 26.0883C115.64 26.437 114.838 26.636 114.021 26.6739C113.333 26.7113 112.646 26.5956 112.009 26.3351C111.371 26.0747 110.8 25.6759 110.336 25.1677V31.2672H106.624V13.982H110.336V15.142C110.8 14.6336 111.371 14.2348 112.009 13.9743C112.646 13.7138 113.333 13.5982 114.021 13.6358C114.838 13.6743 115.64 13.8736 116.381 14.2225C117.121 14.5713 117.786 15.0627 118.336 15.6687C118.885 16.2745 119.309 16.9828 119.583 17.753C119.857 18.5231 119.976 19.3389 119.934 20.1553ZM116.222 20.1553C116.208 19.5768 116.023 19.0154 115.691 18.5416C115.359 18.0678 114.894 17.703 114.354 17.4929C113.815 17.2819 113.226 17.2343 112.66 17.3559C112.094 17.4775 111.577 17.763 111.172 18.1767C110.869 18.4857 110.638 18.8579 110.496 19.2665C110.354 19.6751 110.305 20.1101 110.35 20.5403C110.396 20.9704 110.537 21.3851 110.762 21.7546C110.987 22.1241 111.291 22.4392 111.652 22.6774C112.134 22.9972 112.701 23.1677 113.28 23.1676C113.878 23.1938 114.47 23.0292 114.969 22.6974C115.468 22.3657 115.849 21.884 116.056 21.3219C116.194 20.9492 116.25 20.5515 116.222 20.1553ZM131.386 22.6232C131.386 25.4634 128.913 26.6739 126.242 26.6739C125.163 26.7713 124.08 26.5434 123.132 26.0195C122.184 25.4956 121.414 24.6998 120.923 23.7345L124.137 21.9075C124.267 22.354 124.547 22.7424 124.929 23.0075C125.311 23.2726 125.772 23.3985 126.236 23.3641C127.126 23.3641 127.572 23.0928 127.572 22.5998C127.572 21.2396 121.486 21.9571 121.486 17.6847C121.486 14.9923 123.763 13.6349 126.335 13.6349C127.302 13.6044 128.259 13.8334 129.107 14.298C129.956 14.7626 130.664 15.4458 131.159 16.2767L127.992 17.9812C127.853 17.6576 127.622 17.3821 127.327 17.189C127.033 16.9958 126.688 16.8936 126.335 16.8951C125.692 16.8951 125.296 17.144 125.296 17.5855C125.301 18.9934 131.386 18.0542 131.386 22.6232ZM144.943 13.981V26.3296H141.231V25.1687C140.803 25.6814 140.259 26.0853 139.644 26.3471C139.03 26.6089 138.362 26.7212 137.695 26.6748C135.196 26.6748 133.072 24.8974 133.072 21.5614V13.981H136.783V21.0188C136.736 21.4626 136.836 21.9096 137.068 22.2908C137.3 22.672 137.651 22.966 138.068 23.1274C138.343 23.235 138.638 23.2818 138.935 23.264C140.295 23.264 141.235 22.4744 141.235 20.7204V13.9848L144.943 13.981ZM166.222 18.7483V26.3296H162.511V19.0692C162.511 17.8344 161.917 17.0448 160.73 17.0448C159.493 17.0448 158.8 17.9092 158.8 19.3658V26.3296H155.09V19.0692C155.09 17.8344 154.497 17.0448 153.308 17.0448C152.071 17.0448 151.379 17.9092 151.379 19.3658V26.3296H147.668V13.981H151.379V15.1158C151.764 14.6119 152.269 14.2125 152.848 13.954C153.427 13.6955 154.062 13.5861 154.694 13.6358C155.329 13.6051 155.96 13.7389 156.528 14.0243C157.096 14.3096 157.58 14.7369 157.934 15.2645C158.346 14.7123 158.891 14.2733 159.518 13.9885C160.145 13.7037 160.835 13.5824 161.521 13.6358C164.362 13.6368 166.222 15.6612 166.222 18.7483ZM169.361 13.9053C169.722 13.9056 170.08 13.8348 170.414 13.6968C170.748 13.5588 171.052 13.3564 171.308 13.1011C171.563 12.8457 171.766 12.5425 171.905 12.2088C172.043 11.875 172.115 11.5172 172.115 11.1558C172.115 10.7944 172.043 10.4366 171.905 10.1029C171.766 9.76909 171.563 9.46589 171.308 9.21057C171.052 8.95525 170.748 8.75281 170.414 8.61483C170.08 8.47684 169.722 8.40601 169.361 8.40638C169 8.40614 168.642 8.47706 168.308 8.6151C167.974 8.75313 167.671 8.95559 167.415 9.2109C167.159 9.46621 166.956 9.76937 166.818 10.1031C166.679 10.4368 166.608 10.7945 166.608 11.1558C166.608 11.5171 166.679 11.8748 166.818 12.2086C166.956 12.5423 167.159 12.8454 167.415 13.1007C167.671 13.356 167.974 13.5585 168.308 13.6965C168.642 13.8346 169 13.9055 169.361 13.9053Z" fill="#525B6E"/>
</g>
</g>
<defs>
<clipPath id="clip0_563_3448">
<rect width="165" height="38" fill="white"/>
</clipPath>
<clipPath id="clip1_563_3448">
<rect width="175" height="37.42" fill="white"/>
</clipPath>
</defs>
</svg>
