<svg width="153" height="36" viewBox="0 0 153 36" fill="none" xmlns="http://www.w3.org/2000/svg">
<g clip-path="url(#clip0_563_3425)">
<g clip-path="url(#clip1_563_3425)">
<g clip-path="url(#clip2_563_3425)">
<mask id="mask0_563_3425" style="mask-type:luminance" maskUnits="userSpaceOnUse" x="1" y="1" width="151" height="34">
<path d="M1.941 1.28845H151.059V34.7115H1.941V1.28845Z" fill="white"/>
</mask>
<g mask="url(#mask0_563_3425)">
<path d="M44.965 18.6701C44.9946 18.0992 44.9946 17.5271 44.965 16.9561H12.4427C12.4358 17.0984 12.4298 17.2415 12.4264 17.3846H5.61325L5.60982 17.5989H1.941V18.0274H5.60896L5.6141 18.2416H12.4264C12.4298 18.3856 12.435 18.5279 12.4435 18.6701H21.7806C21.7451 18.3858 21.7273 18.0996 21.7274 17.8131H35.4394C35.4394 18.1036 35.4223 18.3899 35.3863 18.6701H44.965ZM44.8973 16.0991H35.2243C35.1491 15.8075 35.0546 15.5212 34.9415 15.2421H22.2279C22.1147 15.5212 22.0202 15.8075 21.9451 16.0991H12.5095C12.525 15.956 12.5421 15.8129 12.5609 15.6706H5.7478L5.77693 15.4615H1.941V15.033H5.84464L5.88406 14.8136H12.6972C12.7229 14.6705 12.7521 14.5274 12.7829 14.3851H44.6256C44.7456 14.9465 44.8373 15.5181 44.8973 16.0991ZM44.4174 13.5281H33.9362C33.6891 13.2196 33.4158 12.9329 33.1195 12.6711H24.049C23.7534 12.9334 23.4791 13.2196 23.2323 13.5281H12.9912C13.0297 13.385 13.0709 13.2419 13.1137 13.0996H6.30056L6.37598 12.8588H1.941V12.4295H6.5191L6.58594 12.2418H13.3991C13.4505 12.0978 13.5054 11.9555 13.5619 11.8133H43.8457C44.0668 12.3703 44.2579 12.9437 44.4174 13.5281ZM43.4772 10.9571H13.9304C13.9973 10.8131 14.0658 10.6709 14.137 10.5286H7.32468L7.44551 10.2921H1.941V9.86359H7.67776L7.7866 9.67163H14.5997C14.6829 9.52765 14.7686 9.38453 14.856 9.24313H42.5517C42.8927 9.79332 43.203 10.3658 43.4772 10.9571ZM12.5095 19.5271H44.8981C44.8378 20.1029 44.7468 20.675 44.6256 21.2411H34.5233C34.6818 20.9669 34.8224 20.6806 34.9424 20.3841H22.2262C22.3462 20.6806 22.4859 20.9669 22.6444 21.2411H12.7821C12.7516 21.0987 12.723 20.9558 12.6964 20.8126H5.88406C5.8701 20.7373 5.85668 20.6619 5.84378 20.5864H1.941V20.1579H5.77608C5.76624 20.0905 5.75681 20.0231 5.7478 19.9556H12.5609C12.5419 19.813 12.5248 19.6702 12.5095 19.5271ZM12.9903 22.0981H44.4165C44.2579 22.6835 44.0668 23.2551 43.8457 23.8121H31.906C32.3403 23.5711 32.7471 23.2838 33.1195 22.9551H24.049C24.421 23.2842 24.8289 23.5713 25.2625 23.8121H13.5619C13.5057 23.67 13.4514 23.5272 13.3991 23.3836H6.58594L6.51224 23.1771H1.941V22.7486H6.36998C6.3466 22.6748 6.32375 22.6008 6.30142 22.5266H13.1137C13.0709 22.3844 13.0297 22.2421 12.9903 22.0981ZM13.9304 24.6691H43.4772C43.203 25.2587 42.8945 25.8304 42.5517 26.3831H14.856C14.7681 26.2416 14.6824 26.0988 14.5989 25.9546H7.7866C7.74378 25.8811 7.70178 25.8071 7.66062 25.7327H1.941V25.3042H7.43009L7.32468 25.0985H14.1378C14.0666 24.9567 13.9975 24.8138 13.9304 24.67V24.6691ZM16.4414 28.5256C16.5674 28.6713 16.6968 28.8136 16.8288 28.9541H40.5788C41.0847 28.4151 41.5534 27.8425 41.9818 27.2401H15.4259C15.5287 27.385 15.6333 27.5281 15.7413 27.6686H8.92812L9.09781 27.8872H1.941V28.3157H9.44832C9.50746 28.3868 9.56745 28.4562 9.62829 28.5256H16.4414ZM19.2841 31.0966C19.4924 31.2449 19.704 31.388 19.9183 31.5251H37.4894C38.2778 31.0186 39.0217 30.4453 39.7124 29.8111H17.6961C17.8546 29.9568 18.0166 30.0999 18.1812 30.2396H11.368C11.4606 30.3185 11.554 30.3956 11.6482 30.471H1.941V30.8995H12.201C12.2901 30.9664 12.381 31.0324 12.4718 31.0966H19.285H19.2841ZM25.2977 33.7396C26.4173 33.9774 27.5588 34.0969 28.7034 34.0961C31.3207 34.0961 33.7931 33.4791 35.9836 32.3821H21.4232C21.7283 32.5347 22.0377 32.6778 22.3522 32.8106H15.539C15.6607 32.862 15.7833 32.9126 15.9058 32.9615H1.941V33.39H17.1313C18.6371 33.8493 20.2354 34.0961 21.8911 34.0961C23.036 34.0969 24.1778 33.9774 25.2977 33.7396ZM15.4259 8.38613H41.9818C41.5534 7.78377 41.0847 7.21113 40.5788 6.67213H16.8288C16.6968 6.81267 16.5674 6.95494 16.4406 7.10063H9.62829L9.47746 7.27717H1.941V7.70567H9.12438C9.05839 7.7888 8.99326 7.87278 8.92898 7.95763H15.7413C15.6333 8.09903 15.5287 8.24215 15.4259 8.38613ZM17.6952 5.81513H39.7116C39.0213 5.18115 38.2779 4.6077 37.4894 4.10113H19.9183C19.704 4.2391 19.4924 4.38222 19.2841 4.52963H12.4718C12.3775 4.59733 12.2833 4.66503 12.1907 4.73445H1.941V5.16295H11.6388C11.548 5.23665 11.458 5.31121 11.3689 5.38663H18.1812C18.0166 5.52632 17.8546 5.66944 17.6952 5.81513ZM21.424 3.24413H35.9845C33.7245 2.11326 31.2314 1.52631 28.7043 1.53013C27.5353 1.53013 26.3964 1.65353 25.2977 1.8875C24.1778 1.64942 23.036 1.52964 21.8911 1.53013C20.0623 1.53013 18.3046 1.83179 16.6634 2.38713H1.941V2.81563H22.3522C22.0384 2.94867 21.7288 3.09157 21.424 3.24413ZM97.2805 1.28845C97.8436 1.28845 98.2858 1.429 98.6072 1.7101C98.9423 1.97834 99.1094 2.35285 99.1094 2.83619C99.1094 3.31869 98.9423 3.70005 98.6072 3.98115C98.2858 4.24939 97.8436 4.38394 97.2805 4.38394C96.7184 4.38394 96.2693 4.24939 95.9342 3.98115C95.6128 3.70005 95.4517 3.31869 95.4517 2.83619C95.4517 2.3537 95.6128 1.97919 95.9342 1.7101C96.2693 1.429 96.7184 1.28845 97.2805 1.28845ZM98.848 6.2522V14.9945C98.848 15.5575 98.9423 15.9397 99.13 16.1403C99.3305 16.3417 99.6656 16.4419 100.134 16.4419V16.8636C99.7595 16.8453 99.3844 16.8318 99.0091 16.8233C98.4936 16.7963 97.9775 16.7829 97.4614 16.783C96.9395 16.783 96.4098 16.7967 95.8742 16.8233C95.4723 16.8319 95.0703 16.8456 94.6684 16.8636V16.4419C95.1372 16.4419 95.4654 16.3417 95.6531 16.1403C95.8536 15.9397 95.9548 15.5575 95.9548 14.9945V8.66379C95.9548 8.06132 95.8605 7.61825 95.6728 7.33802C95.4988 7.04321 95.1637 6.8958 94.6684 6.8958V6.4733C95.0969 6.51358 95.5126 6.53329 95.9145 6.53329C96.4767 6.53329 96.9995 6.51358 97.4819 6.4733C97.9773 6.42017 98.4332 6.34647 98.848 6.2522Z" fill="#525B6E"/>
<path fill-rule="evenodd" clip-rule="evenodd" d="M104.504 8.09645V6.25219C104.089 6.34646 103.633 6.42016 103.138 6.47329C102.642 6.51357 102.119 6.53328 101.57 6.53328C101.168 6.53328 100.753 6.51357 100.324 6.47329V6.89579C100.806 6.89579 101.141 7.0432 101.329 7.33801C101.517 7.6191 101.61 8.06131 101.61 8.66379V18.713C101.61 19.2486 101.517 19.6102 101.329 19.7979C101.155 19.9856 100.847 20.079 100.404 20.079V20.5015L101.47 20.4415C101.958 20.4279 102.448 20.4211 102.937 20.421C103.62 20.421 104.263 20.4278 104.866 20.4407C105.482 20.4681 105.965 20.4878 106.313 20.5007V20.079C105.75 20.079 105.308 19.9719 104.987 19.7577C104.665 19.5571 104.504 19.1415 104.504 18.5116V16.4976C104.681 16.645 104.888 16.7667 105.127 16.8636C105.556 17.0521 106.031 17.1455 106.554 17.1455C107.265 17.1455 107.9 17.0178 108.464 16.7633C109.036 16.5116 109.539 16.1256 109.931 15.6381C110.346 15.129 110.661 14.506 110.875 13.7689C111.103 13.0319 111.217 12.1749 111.217 11.1962C111.217 10.0847 111.056 9.15999 110.735 8.42297C110.413 7.67224 109.984 7.1169 109.448 6.75525C108.913 6.38008 108.273 6.18307 107.619 6.1922C106.842 6.1922 106.159 6.39274 105.569 6.79467C105.106 7.10747 104.751 7.54026 104.504 8.09645ZM104.504 8.78719V16.0726C104.616 16.2045 104.75 16.3142 104.906 16.4016C105.161 16.5353 105.449 16.6022 105.771 16.6022C106.373 16.6022 106.849 16.4016 107.198 15.9997C107.546 15.5841 107.793 15.0082 107.941 14.2711C108.102 13.5213 108.182 12.63 108.182 11.5982C108.182 10.4463 108.109 9.54135 107.961 8.88489C107.814 8.22843 107.613 7.75965 107.358 7.47855C107.103 7.1966 106.796 7.05605 106.433 7.05605C105.952 7.05605 105.509 7.24459 105.108 7.6191C104.805 7.91048 104.604 8.30042 104.504 8.78719Z" fill="#525B6E"/>
<path d="M115.831 6.19221C116.394 6.19221 116.883 6.26591 117.298 6.41331C117.727 6.54701 118.035 6.68156 118.223 6.81525C118.678 7.12377 118.96 6.92237 119.067 6.21192H119.489C119.458 6.6736 119.438 7.13594 119.429 7.59855C119.413 8.31546 119.406 9.03254 119.408 9.74962H118.987C118.918 9.24711 118.79 8.75458 118.604 8.28243C118.434 7.82427 118.15 7.41639 117.781 7.09634C117.432 6.78782 116.977 6.63356 116.414 6.63356C116.026 6.63356 115.697 6.7484 115.429 6.97636C115.161 7.19061 115.027 7.50513 115.027 7.92078C115.027 8.32271 115.148 8.67751 115.389 8.98603C115.631 9.28084 115.938 9.56879 116.314 9.84988C116.702 10.1181 117.104 10.4061 117.519 10.7137C117.962 11.0488 118.364 11.3839 118.725 11.719C119.072 12.0224 119.365 12.3823 119.589 12.7843C119.804 13.1725 119.911 13.6344 119.911 14.1709C119.911 14.7733 119.736 15.3021 119.389 15.758C119.04 16.2003 118.578 16.5422 118.002 16.783C117.439 17.0247 116.809 17.1455 116.113 17.1455C115.748 17.1497 115.383 17.1091 115.027 17.0247C114.749 16.9553 114.479 16.8541 114.223 16.723C114.049 16.6425 113.881 16.5688 113.721 16.5019C113.584 16.4268 113.443 16.3598 113.299 16.3014C113.165 16.2611 113.044 16.3074 112.937 16.4419C112.844 16.5756 112.77 16.7633 112.716 17.0041H112.294C112.321 16.5756 112.341 16.0529 112.354 15.4367C112.368 14.8205 112.375 14.0029 112.375 12.9856H112.797C112.877 13.709 113.024 14.3517 113.239 14.9139C113.453 15.4641 113.741 15.8994 114.103 16.2208C114.478 16.5293 114.947 16.6836 115.51 16.6836C115.738 16.6836 115.959 16.6365 116.173 16.5422C116.387 16.4479 116.561 16.2937 116.696 16.0794C116.843 15.8652 116.917 15.5909 116.917 15.2567C116.917 14.6662 116.722 14.1769 116.333 13.7887C115.959 13.4004 115.476 12.9779 114.887 12.5229C114.458 12.1741 114.049 11.833 113.661 11.4979C113.301 11.1684 112.99 10.7896 112.737 10.3727C112.492 9.94459 112.367 9.45849 112.375 8.96546C112.375 8.36299 112.535 7.85393 112.857 7.43829C113.185 7.01836 113.624 6.69784 114.123 6.51358C114.667 6.29785 115.246 6.18874 115.831 6.19221ZM140.779 6.41331C140.43 6.26591 139.975 6.19221 139.412 6.19221C138.782 6.18584 138.16 6.3379 137.604 6.63442C137.055 6.91552 136.619 7.39115 136.297 8.06133V6.25306C135.846 6.35241 135.39 6.42595 134.931 6.4733C134.449 6.51358 133.926 6.53329 133.364 6.53329C132.962 6.53329 132.546 6.51358 132.118 6.4733V6.89581C132.613 6.89581 132.948 7.04321 133.122 7.33802C133.31 7.61911 133.403 8.06133 133.403 8.6638V14.9945C133.403 15.5575 133.303 15.9397 133.102 16.1403C132.915 16.3417 132.586 16.4419 132.118 16.4419V16.8636C132.519 16.8456 132.921 16.8322 133.323 16.8233C133.845 16.7974 134.368 16.784 134.891 16.783C135.36 16.783 135.816 16.7967 136.257 16.8233C136.713 16.837 137.048 16.8507 137.262 16.8636V16.4419C136.914 16.4419 136.666 16.3417 136.518 16.1403C136.371 15.9397 136.297 15.5575 136.297 14.9945V9.40767C136.297 8.96546 136.385 8.57038 136.559 8.22158C136.746 7.85993 136.987 7.57883 137.282 7.3783C137.565 7.18103 137.902 7.0757 138.247 7.07663C138.555 7.07663 138.782 7.15033 138.93 7.29774C139.091 7.43143 139.198 7.62597 139.252 7.8805C139.305 8.12132 139.332 8.40927 139.332 8.74435V14.9945C139.332 15.5575 139.258 15.9397 139.111 16.1403C138.977 16.3417 138.729 16.4419 138.368 16.4419V16.8636C138.608 16.8507 138.963 16.837 139.433 16.8233C140.383 16.7691 141.336 16.7691 142.287 16.8233C142.782 16.837 143.151 16.8507 143.391 16.8636V16.4419C142.963 16.4419 142.661 16.3417 142.487 16.1403C142.313 15.9397 142.226 15.5575 142.226 14.9945V9.4968L142.225 9.43424L142.222 9.23113C142.252 8.89519 142.342 8.56695 142.487 8.26272C142.675 7.90021 142.916 7.61226 143.211 7.39801C143.505 7.18376 143.828 7.07663 144.176 7.07663C144.524 7.07663 144.779 7.15033 144.939 7.29774C145.113 7.43143 145.227 7.62597 145.281 7.8805C145.348 8.12132 145.381 8.40927 145.381 8.74435V14.9945C145.381 15.5575 145.308 15.9397 145.16 16.1403C145.027 16.3417 144.779 16.4419 144.416 16.4419V16.8636C144.658 16.8507 145.013 16.837 145.482 16.8233C145.957 16.7964 146.433 16.7829 146.909 16.783C147.405 16.783 147.907 16.7967 148.416 16.8233C148.925 16.837 149.307 16.8507 149.562 16.8636V16.4419C149.093 16.4419 148.758 16.3417 148.557 16.1403C148.369 15.9397 148.275 15.5575 148.275 14.9945V9.5885C148.275 8.91833 148.228 8.3827 148.135 7.98077C148.041 7.56512 147.887 7.23089 147.672 6.97636C147.458 6.73469 147.177 6.54786 146.828 6.41331C146.48 6.26591 146.024 6.19221 145.462 6.19221C144.796 6.18846 144.137 6.33246 143.533 6.61385C142.955 6.88981 142.487 7.416 142.128 8.19245C142.116 8.12147 142.102 8.05088 142.085 7.98077C141.992 7.56512 141.838 7.23089 141.623 6.97636C141.409 6.73469 141.127 6.54786 140.779 6.41331ZM130.541 14.6731V6.2522C130.125 6.34647 129.67 6.42017 129.174 6.4733C128.692 6.51358 128.169 6.53329 127.606 6.53329C127.204 6.53329 126.79 6.51358 126.36 6.4733V6.89581C126.856 6.89581 127.192 7.04321 127.366 7.33802C127.553 7.61911 127.647 8.06133 127.647 8.6638V13.9292C127.647 14.3714 127.553 14.7733 127.366 15.135C127.206 15.466 126.964 15.7501 126.662 15.9594C126.381 16.1606 126.043 16.2663 125.697 16.2611C125.363 16.2611 125.108 16.1934 124.933 16.0597C124.753 15.9016 124.626 15.6909 124.572 15.4572C124.515 15.1659 124.488 14.8696 124.491 14.5728V6.2522C124.076 6.34647 123.62 6.42017 123.125 6.4733C122.643 6.51358 122.12 6.53329 121.558 6.53329C121.156 6.53329 120.74 6.51358 120.312 6.4733V6.89581C120.807 6.89581 121.142 7.04321 121.316 7.33802C121.504 7.61911 121.597 8.06133 121.597 8.6638V13.7484C121.597 14.4048 121.644 14.9413 121.738 15.3561C121.832 15.7718 121.993 16.1068 122.22 16.3614C122.421 16.5893 122.696 16.777 123.045 16.9244C123.392 17.071 123.848 17.1455 124.411 17.1455C125.108 17.1455 125.737 17.0041 126.3 16.723C126.876 16.4282 127.325 15.9457 127.647 15.2764V17.0847C128.096 16.9742 128.553 16.9003 129.014 16.8636C129.496 16.8233 130.018 16.8036 130.581 16.8036C130.997 16.8036 131.411 16.8233 131.827 16.8636V16.4419C131.345 16.4419 131.009 16.3014 130.822 16.0194C130.634 15.7246 130.541 15.2756 130.541 14.6731Z" fill="#525B6E"/>
<path fill-rule="evenodd" clip-rule="evenodd" d="M91.6655 6.73472C90.9285 6.37306 90.0706 6.19224 89.0928 6.19224C88.1415 6.19224 87.2905 6.37221 86.5406 6.73472C85.8036 7.09637 85.2208 7.67913 84.7923 8.483C84.3767 9.28686 84.1684 10.3513 84.1684 11.6787C84.1684 13.0054 84.3767 14.0698 84.7915 14.8745C85.22 15.6647 85.8027 16.2406 86.5398 16.6022C87.2905 16.9639 88.1415 17.1456 89.0928 17.1456C90.0706 17.1456 90.9285 16.9639 91.6655 16.6022C92.4016 16.2406 92.9784 15.6647 93.3932 14.8745C93.8088 14.0706 94.0162 13.0054 94.0162 11.6779C94.0162 10.3521 93.8088 9.28686 93.3932 8.483C92.9784 7.67913 92.4016 7.09637 91.6655 6.73472ZM87.7464 7.79997C88.1081 6.9961 88.5571 6.59417 89.0928 6.59417C89.6421 6.59417 90.0912 6.9961 90.4391 7.79997C90.8008 8.59012 90.9816 9.88248 90.9816 11.6787C90.9816 13.4742 90.8008 14.7674 90.4391 15.5575C90.0912 16.3477 89.6421 16.7436 89.0928 16.7436C88.5571 16.7436 88.1081 16.3477 87.7464 15.5575C87.3848 14.7674 87.2039 13.4742 87.2039 11.6787C87.2039 9.88333 87.3839 8.59012 87.7464 7.79997ZM77.615 20.6421C76.7837 20.6421 76.0406 20.5684 75.3842 20.421C74.7414 20.2873 74.2324 20.0731 73.857 19.7783C73.4954 19.4954 73.3145 19.1484 73.3145 18.7327C73.3145 18.3171 73.5014 17.9426 73.8767 17.6075C74.2521 17.2861 74.8083 17.0316 75.5453 16.8439L75.7253 17.1653C75.4952 17.3381 75.3037 17.557 75.1631 17.808C75.0575 18.0418 75.0025 18.2953 75.002 18.5519C75.002 19.1149 75.2565 19.5434 75.7664 19.8374C76.2892 20.1459 76.9919 20.3002 77.8763 20.3002C78.4788 20.3002 79.0153 20.2196 79.4841 20.0594C79.9666 19.8982 80.3411 19.6566 80.6093 19.336C80.8913 19.0138 81.0318 18.6187 81.0318 18.15C81.0318 17.7472 80.8844 17.4061 80.5896 17.125C80.2948 16.8567 79.7052 16.7222 78.8208 16.7222H77.5747C77.0262 16.7222 76.5429 16.6622 76.1281 16.5422C75.7253 16.4222 75.4108 16.2337 75.1828 15.9792C74.9557 15.7118 74.8417 15.3767 74.8417 14.9748C74.8417 14.4117 75.0628 13.9164 75.505 13.487C75.8512 13.1511 76.3295 12.8314 76.9396 12.5289C76.5385 12.479 76.1445 12.3827 75.7655 12.2418C75.1631 12.0138 74.6874 11.665 74.3395 11.1963C73.9907 10.7275 73.8167 10.125 73.8167 9.38799C73.8167 8.65097 73.9907 8.04764 74.3395 7.57886C74.6874 7.09637 75.1631 6.74757 75.7664 6.53332C76.3689 6.30622 77.0519 6.19224 77.8155 6.19224C78.5799 6.19224 79.263 6.30622 79.8654 6.53418C80.2631 6.67473 80.6042 6.87441 80.8913 7.13151C81.0618 6.88555 81.2692 6.66616 81.5134 6.47333C81.9694 6.12539 82.4587 5.95056 82.9806 5.95056C83.4091 5.95056 83.7314 6.07054 83.9456 6.31307C84.1736 6.54018 84.2876 6.84184 84.2876 7.21721C84.2876 7.61914 84.1796 7.91995 83.9653 8.12134C83.7511 8.30988 83.5103 8.4033 83.242 8.4033C83.0061 8.40017 82.7788 8.31468 82.5993 8.16162C82.4107 8.00051 82.3045 7.75883 82.2779 7.43831C82.2548 7.15036 82.3353 6.79385 82.5196 6.36706C82.1288 6.53332 81.8271 6.72272 81.6146 6.93611C81.4543 7.09037 81.3146 7.26434 81.1981 7.4546C81.2306 7.49488 81.2624 7.53687 81.2923 7.57886C81.6411 8.04764 81.8151 8.65011 81.8151 9.38713C81.8151 10.1242 81.6411 10.7275 81.2923 11.1954C80.9444 11.665 80.4688 12.0138 79.8654 12.2409C79.263 12.4689 78.5799 12.5829 77.8155 12.5829C77.7015 12.5829 77.5867 12.5803 77.4727 12.5743C77.293 12.6963 77.1191 12.8267 76.9516 12.9651C76.8484 13.0459 76.7655 13.1498 76.7097 13.2684C76.6539 13.387 76.6267 13.5171 76.6303 13.6481C76.6303 14.0766 76.8985 14.2909 77.4341 14.2909H79.6246C80.3616 14.2909 81.0181 14.3783 81.594 14.5523C82.1836 14.7271 82.6455 15.015 82.9806 15.417C83.3294 15.8052 83.5034 16.3143 83.5034 16.9442C83.5034 17.6006 83.2892 18.2099 82.8607 18.773C82.445 19.336 81.8023 19.7843 80.9307 20.1185C80.06 20.4681 78.9545 20.6421 77.615 20.6421ZM77.8155 12.2212C78.178 12.2212 78.4582 12.0207 78.6596 11.6188C78.861 11.2031 78.9613 10.4592 78.9613 9.38799C78.9613 8.31588 78.861 7.57886 78.6596 7.17693C78.4591 6.76128 78.178 6.55389 77.8164 6.55389C77.4676 6.55389 77.1865 6.76128 76.9722 7.17693C76.7708 7.57886 76.6705 8.31588 76.6705 9.38799C76.6705 10.4592 76.7708 11.2031 76.9722 11.6188C77.1865 12.0207 77.4676 12.2212 77.8155 12.2212ZM70.7127 6.73472C69.9757 6.37306 69.1187 6.19224 68.1408 6.19224C67.1896 6.19224 66.3385 6.37221 65.5887 6.73472C64.8517 7.09637 64.2689 7.67913 63.8404 8.483C63.4247 9.28686 63.2165 10.3513 63.2165 11.6787C63.2165 13.0054 63.4247 14.0698 63.8395 14.8745C64.268 15.6647 64.8508 16.2406 65.5878 16.6022C66.3385 16.9639 67.1896 17.1456 68.1408 17.1456C69.1187 17.1456 69.9765 16.9639 70.7127 16.6022C71.4497 16.2406 72.0256 15.6647 72.4412 14.8745C72.8569 14.0706 73.0643 13.0054 73.0643 11.6779C73.0643 10.3521 72.8569 9.28686 72.4412 8.483C72.0265 7.67913 71.4497 7.09637 70.7127 6.73472ZM66.7936 7.79997C67.1561 6.9961 67.6043 6.59417 68.1408 6.59417C68.6893 6.59417 69.1384 6.9961 69.4863 7.79997C69.8488 8.59012 70.0296 9.88248 70.0296 11.6787C70.0296 13.4742 69.8488 14.7674 69.4872 15.5575C69.1384 16.3477 68.6902 16.7436 68.1408 16.7436C67.6043 16.7436 67.1553 16.3477 66.7936 15.5575C66.432 14.7674 66.2511 13.4742 66.2511 11.6787C66.2511 9.88333 66.432 8.59012 66.7936 7.79997Z" fill="#525B6E"/>
<path d="M57.8037 2.63477V3.03756C57.3486 3.05041 56.9998 3.10354 56.759 3.19781C56.6488 3.23513 56.5492 3.29847 56.4686 3.38246C56.3881 3.46645 56.3289 3.56861 56.2962 3.68031C56.2165 3.90741 56.1763 4.26992 56.1763 4.76527V14.9747C56.1763 15.3895 56.2028 15.698 56.2568 15.8994C56.3237 16.0999 56.4445 16.2336 56.6185 16.3013C56.8061 16.3682 57.0812 16.4016 57.442 16.4016H58.4276C58.8818 16.4016 59.3112 16.2945 59.7131 16.0802C60.1159 15.866 60.4767 15.5643 60.7981 15.1752C61.137 14.7431 61.4083 14.262 61.6028 13.7483C61.817 13.1999 61.9773 12.5897 62.0844 11.9195H62.5472C62.5069 12.3754 62.4872 12.965 62.4872 13.6884C62.4872 13.9969 62.4932 14.4451 62.5069 15.0347C62.5206 15.6243 62.56 16.2345 62.6269 16.8635C61.8571 16.8352 61.0868 16.8218 60.3164 16.8233C59.4594 16.8104 58.695 16.8035 58.0248 16.8035H56.7393C56.2165 16.8035 55.6535 16.8104 55.051 16.8233C54.4477 16.8233 53.8384 16.8301 53.2222 16.8438C52.6051 16.8438 52.0224 16.8507 51.4739 16.8635V16.4616C51.9024 16.435 52.2238 16.381 52.438 16.3013C52.6523 16.2208 52.7928 16.0597 52.8605 15.8189C52.9402 15.5772 52.9805 15.2155 52.9805 14.733V4.76527C52.9805 4.26906 52.9402 3.90827 52.8605 3.68031C52.8341 3.56882 52.7796 3.46595 52.7022 3.38149C52.6248 3.29703 52.5271 3.2338 52.4183 3.19781C52.2041 3.10354 51.8887 3.05041 51.4739 3.0367V2.63477C52.5314 2.67419 53.5907 2.69476 54.6491 2.69476C55.2387 2.69476 55.8146 2.68876 56.3768 2.67504C56.9535 2.66133 57.4292 2.64848 57.8037 2.63477Z" fill="#525B6E"/>
<path fill-rule="evenodd" clip-rule="evenodd" d="M147.52 33.4714C147.492 33.3274 147.511 33.1397 147.579 32.9083L150.409 22.6526C149.956 22.8384 149.487 22.9832 149.008 23.0854C148.517 23.1822 147.954 23.2345 147.318 23.2448L147.217 23.5482C147.689 23.5482 147.983 23.6253 148.099 23.7795C148.214 23.9338 148.228 24.1738 148.142 24.5011L147.472 27.0284C147.429 26.9065 147.357 26.7973 147.261 26.7113C147.097 26.5571 146.871 26.4799 146.582 26.4799C146.004 26.4799 145.47 26.6102 144.979 26.8699C144.485 27.1399 144.04 27.4916 143.664 27.9103C143.269 28.3347 142.934 28.811 142.667 29.326C142.405 29.8273 142.197 30.3551 142.046 30.9004C141.909 31.37 141.836 31.8561 141.829 32.3453C141.829 32.8072 141.902 33.1877 142.046 33.4859C142.191 33.7747 142.388 33.9916 142.638 34.1355C142.888 34.2709 143.168 34.3378 143.476 34.3378C143.948 34.3378 144.372 34.1989 144.747 33.9196C145.123 33.6308 145.474 33.1877 145.802 32.5904C145.939 32.347 146.077 32.0736 146.214 31.7702L146.119 32.1284C146.032 32.4106 145.974 32.7009 145.946 32.9949C145.927 33.2451 145.946 33.4576 146.004 33.6308C146.119 34.1021 146.476 34.3386 147.073 34.3386C147.294 34.3386 147.52 34.2949 147.752 34.2084C147.983 34.1218 148.199 33.9727 148.401 33.7602C148.614 33.5485 148.782 33.246 148.907 32.85L149.254 31.7959H148.98L148.749 32.4455C148.575 32.9374 148.412 33.2691 148.257 33.4422C148.113 33.6068 147.964 33.6882 147.809 33.6882C147.646 33.6882 147.55 33.6162 147.52 33.4714ZM146.75 29.752C146.646 30.0914 146.527 30.4263 146.394 30.7555C146.185 31.3066 145.929 31.8385 145.628 32.3453C145.369 32.778 145.113 33.1148 144.863 33.3565C144.613 33.587 144.391 33.7027 144.199 33.7027C144.015 33.7027 143.881 33.6162 143.794 33.4431C143.717 33.2597 143.679 32.9854 143.679 32.6195C143.679 32.0993 143.736 31.5697 143.852 31.0306C143.967 30.4821 144.126 29.9568 144.328 29.4563C144.514 28.9865 144.746 28.5364 145.021 28.1125C145.282 27.708 145.556 27.3901 145.845 27.1587C146.143 26.9273 146.437 26.8125 146.726 26.8125C146.919 26.8125 147.073 26.8802 147.189 27.0147C147.269 27.1021 147.331 27.229 147.374 27.3969L146.75 29.752Z" fill="#525B6E"/>
<path d="M137.908 34.1356H136.132L137.865 27.9103C137.952 27.6215 137.98 27.4193 137.952 27.3036C137.923 27.1879 137.836 27.1305 137.692 27.1305C137.509 27.1305 137.34 27.2222 137.186 27.4047C137.032 27.5872 136.873 27.9103 136.709 28.3731L136.463 29.051H136.189L136.565 27.9678C136.7 27.5821 136.868 27.2847 137.07 27.0722C137.251 26.866 137.479 26.7074 137.735 26.6103C137.976 26.5237 138.221 26.48 138.471 26.48C138.78 26.48 139.006 26.5426 139.15 26.6685C139.303 26.7914 139.406 26.9661 139.44 27.1596C139.489 27.3773 139.498 27.6027 139.468 27.8238C139.449 28.0552 139.411 28.2814 139.352 28.5025L139.12 29.4084L139.179 29.2541C139.449 28.5702 139.709 28.026 139.959 27.6215C140.22 27.2076 140.494 26.9136 140.783 26.7405C141.066 26.5691 141.391 26.4783 141.722 26.48C142.068 26.48 142.333 26.5811 142.516 26.7834C142.709 26.9856 142.805 27.2359 142.805 27.535C142.805 27.7749 142.747 28.002 142.632 28.2137C142.52 28.4124 142.361 28.581 142.169 28.7048C141.987 28.8205 141.775 28.8779 141.534 28.8779C141.293 28.8779 141.101 28.8153 140.956 28.6902C140.821 28.5651 140.754 28.3817 140.754 28.1417C140.754 27.9292 140.802 27.7372 140.898 27.5633C140.991 27.3936 141.12 27.2462 141.274 27.1305C141.428 27.0053 141.597 26.9188 141.779 26.8699C141.759 26.8501 141.734 26.8354 141.707 26.8271C141.675 26.8169 141.641 26.812 141.606 26.8125C141.395 26.8125 141.178 26.8896 140.956 27.0439C140.735 27.1879 140.503 27.4244 140.263 27.7518C140.022 28.0792 139.777 28.512 139.526 29.051C139.244 29.6884 138.993 30.3394 138.775 31.0015C138.666 31.3221 138.556 31.6666 138.447 32.0359L137.908 34.1356Z" fill="#525B6E"/>
<path fill-rule="evenodd" clip-rule="evenodd" d="M132.511 31.9039L132.45 32.1284C132.359 32.4541 132.296 32.7883 132.262 33.1251C132.233 33.4336 132.281 33.6933 132.406 33.905C132.599 34.1938 132.927 34.3386 133.389 34.3386C133.61 34.3386 133.832 34.2949 134.054 34.2084C134.284 34.1218 134.501 33.9727 134.703 33.7602C134.905 33.5391 135.074 33.2305 135.209 32.8363L135.57 31.7822H135.295L135.079 32.4318C134.905 32.9323 134.737 33.2648 134.574 33.4285C134.41 33.5913 134.251 33.6736 134.096 33.6736C133.971 33.6736 133.89 33.635 133.851 33.5579C133.821 33.4598 133.811 33.3566 133.822 33.2545C133.841 33.132 133.87 33.0111 133.909 32.8937L135.773 26.4799C135.482 26.5485 135.188 26.5974 134.891 26.6248C134.593 26.6539 134.27 26.6728 133.923 26.6822L133.714 27.4552C133.705 27.2589 133.648 27.0679 133.548 26.899C133.472 26.7676 133.363 26.6592 133.23 26.5854C133.098 26.5116 132.948 26.4752 132.796 26.4799C132.373 26.4799 131.95 26.6102 131.525 26.8699C131.075 27.1527 130.67 27.5041 130.326 27.9103C129.938 28.3533 129.599 28.8375 129.315 29.3543C129.031 29.8727 128.804 30.42 128.636 30.9869C128.479 31.497 128.396 32.0273 128.391 32.5612C128.391 33.1011 128.516 33.5339 128.767 33.8613C129.017 34.1792 129.402 34.3378 129.922 34.3378C130.288 34.3378 130.639 34.2324 130.977 34.0207C131.323 33.8082 131.651 33.4568 131.959 32.9666C132.15 32.6709 132.334 32.317 132.511 31.9039ZM131.266 33.3702C131.044 33.5725 130.847 33.6736 130.674 33.6736C130.529 33.6736 130.418 33.6016 130.341 33.4568C130.273 33.3025 130.24 33.048 130.24 32.6915C130.24 32.1807 130.297 31.6562 130.413 31.1172C130.529 30.5773 130.683 30.0579 130.876 29.5574C131.078 29.0561 131.299 28.6087 131.54 28.2137C131.781 27.8194 132.022 27.5058 132.262 27.2744C132.513 27.043 132.748 26.9282 132.97 26.9282C133.201 26.9282 133.365 27.0439 133.461 27.2744C133.557 27.4835 133.582 27.7637 133.536 28.1142L133.109 29.6928L133.158 29.4417C133.015 30.0221 132.832 30.5917 132.609 31.1463C132.424 31.6114 132.202 32.0606 131.944 32.4892C131.713 32.8646 131.487 33.1586 131.266 33.3702ZM126.449 32.9083C126.382 33.1397 126.363 33.3274 126.392 33.4714C126.42 33.6162 126.517 33.6882 126.681 33.6882C126.835 33.6882 126.984 33.6068 127.128 33.4431C127.282 33.2691 127.446 32.9374 127.619 32.4455L127.851 31.7959H128.125L127.779 32.85C127.653 33.2451 127.485 33.5485 127.273 33.7602C127.093 33.9573 126.87 34.1098 126.622 34.2084C126.406 34.2924 126.176 34.3369 125.944 34.3386C125.347 34.3386 124.991 34.1021 124.875 33.6308C124.814 33.4247 124.795 33.2085 124.818 32.9949C124.845 32.7008 124.903 32.4104 124.991 32.1284L125.086 31.7702C124.948 32.0736 124.81 32.347 124.673 32.5904C124.345 33.1877 123.994 33.6308 123.619 33.9187C123.253 34.1951 122.806 34.3427 122.347 34.3386C122.039 34.3386 121.76 34.2701 121.51 34.1364C121.252 33.9838 121.045 33.7572 120.917 33.4859C120.773 33.1877 120.701 32.8072 120.701 32.3453C120.701 31.9022 120.773 31.4197 120.917 30.9004C121.061 30.3707 121.269 29.8462 121.538 29.326C121.804 28.8118 122.14 28.3345 122.535 27.9103C122.911 27.4917 123.355 27.1399 123.849 26.8699C124.343 26.6091 124.894 26.4751 125.453 26.4799C125.742 26.4799 125.968 26.5571 126.131 26.7113C126.226 26.7945 126.297 26.8999 126.343 27.0284L127.012 24.5011C127.1 24.1738 127.085 23.9329 126.97 23.7787C126.854 23.6244 126.56 23.5473 126.089 23.5473L126.19 23.2448C126.757 23.2415 127.322 23.1882 127.88 23.0854C128.359 22.9832 128.828 22.8384 129.281 22.6526L126.449 32.9083ZM125.265 30.7555C125.394 30.4384 125.513 30.1042 125.621 29.752L126.245 27.3969C126.215 27.2564 126.151 27.1252 126.059 27.0147C126.003 26.9483 125.932 26.8956 125.852 26.8606C125.772 26.8256 125.685 26.8091 125.598 26.8125C125.309 26.8125 125.015 26.9282 124.717 27.1587C124.427 27.3901 124.153 27.708 123.893 28.1125C123.618 28.536 123.386 28.9859 123.2 29.4555C122.994 29.9654 122.835 30.4924 122.723 31.0306C122.609 31.5526 122.551 32.0852 122.549 32.6195C122.549 32.9854 122.588 33.2597 122.665 33.4422C122.751 33.6162 122.887 33.7027 123.069 33.7027C123.262 33.7027 123.483 33.587 123.734 33.3557C123.985 33.1157 124.239 32.778 124.5 32.3444C124.8 31.8379 125.056 31.3057 125.265 30.7555Z" fill="#525B6E"/>
<path d="M112.746 34.1356H114.523L114.69 33.4825L114.681 33.5297C114.864 32.8552 115.071 32.2056 115.302 31.5791C115.527 30.9809 115.778 30.393 116.053 29.8171C116.314 29.2772 116.573 28.8059 116.834 28.4014C117.094 27.9969 117.344 27.6841 117.585 27.4621C117.825 27.2307 118.047 27.1159 118.249 27.1159C118.412 27.1159 118.514 27.1733 118.552 27.289C118.593 27.4202 118.598 27.5597 118.567 27.6935C118.538 27.85 118.499 28.0045 118.451 28.1563L117.137 32.1285C117.002 32.533 116.925 32.8792 116.906 33.168C116.886 33.4568 116.939 33.6934 117.064 33.8759C117.161 34.0207 117.296 34.1313 117.469 34.2084C117.652 34.2941 117.869 34.3387 118.119 34.3387C118.35 34.3387 118.581 34.295 118.813 34.2084C119.053 34.1313 119.275 33.9864 119.477 33.7748C119.689 33.5631 119.862 33.2546 119.997 32.8501L120.358 31.796H120.084L119.852 32.4456C119.67 32.9469 119.497 33.2786 119.333 33.4422C119.179 33.6068 119.029 33.6882 118.885 33.6882C118.73 33.6882 118.634 33.6256 118.596 33.4997C118.557 33.366 118.581 33.168 118.668 32.9083L120.084 28.661C120.209 28.2857 120.271 27.9343 120.271 27.6069C120.281 27.2701 120.19 27.0002 119.997 26.7979C119.814 26.5862 119.486 26.4808 119.015 26.4808C118.658 26.4808 118.316 26.558 117.989 26.7114C117.662 26.8656 117.344 27.1347 117.036 27.5204C116.728 27.8957 116.41 28.4065 116.082 29.051C115.865 29.4858 115.666 29.9292 115.485 30.3802L115.967 28.5025C116.025 28.2711 116.068 28.0397 116.097 27.8092C116.126 27.5692 116.116 27.3515 116.068 27.1587C116.021 26.9598 115.903 26.7849 115.736 26.6677C115.572 26.5425 115.332 26.48 115.014 26.48C114.628 26.48 114.277 26.5862 113.959 26.7979C113.642 27.0096 113.381 27.3995 113.179 27.9677L112.803 29.051H113.078L113.324 28.3722C113.497 27.9009 113.655 27.5778 113.8 27.4047C113.954 27.2221 114.122 27.1304 114.306 27.1304C114.44 27.1304 114.523 27.169 114.552 27.2461C114.589 27.3233 114.6 27.4193 114.58 27.5349C114.558 27.6616 114.529 27.787 114.493 27.9103L112.746 34.1356Z" fill="#525B6E"/>
<path fill-rule="evenodd" clip-rule="evenodd" d="M109.064 32.1285L109.125 31.9039C108.971 32.2724 108.787 32.6281 108.573 32.9666C108.265 33.4568 107.937 33.809 107.59 34.0207C107.253 34.2324 106.902 34.3378 106.536 34.3378C106.016 34.3378 105.631 34.1793 105.381 33.8613C105.13 33.5339 105.005 33.1012 105.005 32.5613C105.005 32.0608 105.087 31.5363 105.251 30.9869C105.418 30.4196 105.645 29.8728 105.929 29.3544C106.212 28.8373 106.551 28.353 106.941 27.9103C107.285 27.504 107.689 27.1531 108.14 26.8699C108.563 26.6102 108.987 26.48 109.411 26.48C109.738 26.48 109.988 26.6197 110.162 26.8999C110.255 27.043 110.31 27.2281 110.328 27.4552L110.537 26.6822C110.861 26.6744 111.183 26.6552 111.505 26.6248C111.814 26.5957 112.107 26.5477 112.386 26.48L110.523 32.8946C110.483 33.0121 110.454 33.1328 110.436 33.2554C110.425 33.3575 110.435 33.4607 110.465 33.5588C110.504 33.6359 110.585 33.6745 110.711 33.6745C110.865 33.6745 111.023 33.5931 111.187 33.4294C111.351 33.2657 111.52 32.9323 111.693 32.4327L111.91 31.7822H112.184L111.823 32.8363C111.688 33.2314 111.52 33.5391 111.317 33.7619C111.149 33.9426 110.946 34.087 110.72 34.1863C110.494 34.2856 110.25 34.3378 110.003 34.3395C109.541 34.3395 109.213 34.1947 109.021 33.9059C108.895 33.6942 108.847 33.4345 108.877 33.126C108.91 32.7892 108.973 32.455 109.064 32.1285ZM107.287 33.6736C107.461 33.6736 107.658 33.5725 107.88 33.3703C108.101 33.1586 108.327 32.8646 108.559 32.4893C108.789 32.1139 109.011 31.6665 109.223 31.1463C109.434 30.6261 109.618 30.058 109.772 29.4409L109.723 29.6929L110.15 28.1151C110.196 27.7638 110.171 27.4835 110.076 27.2753C109.979 27.0439 109.815 26.9282 109.584 26.9282C109.363 26.9282 109.127 27.0439 108.877 27.2744C108.636 27.5058 108.395 27.8186 108.154 28.2137C107.913 28.6079 107.691 29.0561 107.489 29.5566C107.295 30.0638 107.141 30.5853 107.027 31.1164C106.914 31.6338 106.856 32.1618 106.854 32.6915C106.854 33.048 106.887 33.3034 106.955 33.4568C107.032 33.6016 107.143 33.6736 107.287 33.6736Z" fill="#525B6E"/>
<path d="M106.007 26.971L106.05 26.6822H104.329L105.01 24.3134C104.725 24.3838 104.435 24.4325 104.143 24.4591C103.822 24.4888 103.499 24.5077 103.176 24.5157L102.555 26.6822H101.24L101.168 26.971H102.472L100.994 32.1284C100.869 32.5518 100.826 32.9323 100.865 33.2691C100.913 33.5964 101.047 33.857 101.269 34.0489C101.5 34.2418 101.832 34.3386 102.266 34.3386C102.757 34.3386 103.18 34.2083 103.537 33.9478C103.893 33.6881 104.173 33.2596 104.375 32.6623L104.664 31.7967H104.388L104.173 32.3881C103.999 32.8697 103.807 33.2065 103.594 33.3993C103.392 33.5922 103.19 33.6881 102.987 33.6881C102.908 33.6906 102.829 33.6749 102.756 33.6422C102.684 33.6095 102.62 33.5608 102.569 33.4996C102.472 33.3753 102.463 33.1782 102.54 32.9083L104.246 26.971H106.007ZM101.223 23.8086C101.127 24.058 100.996 24.4257 100.833 24.9056C100.679 25.377 100.525 25.994 100.371 26.7542H100.082C100.11 26.6196 100.13 26.4799 100.139 26.3359C100.158 26.2074 100.168 26.0763 100.169 25.946C100.169 25.5698 100.091 25.2433 99.9372 24.9639C99.7891 24.6709 99.5513 24.4328 99.2585 24.2843C98.9603 24.1112 98.5746 24.0246 98.1033 24.0246C97.5925 24.0246 97.1588 24.1592 96.8032 24.4291C96.4467 24.6888 96.2684 25.1079 96.2684 25.6855C96.2684 26.042 96.3498 26.3796 96.5135 26.6967C96.6875 27.0053 96.9043 27.3086 97.164 27.6069C97.4339 27.8957 97.7176 28.1896 98.0158 28.4879C98.3149 28.7767 98.5943 29.0758 98.854 29.3834C99.1137 29.692 99.3262 30.0193 99.4899 30.3656C99.663 30.7032 99.7496 31.0734 99.7496 31.4779C99.7496 31.9887 99.6244 32.4266 99.3742 32.7926C99.1301 33.1521 98.8093 33.4529 98.4349 33.6736C98.0424 33.8979 97.6191 34.0634 97.1786 34.1646C96.7543 34.2778 96.3173 34.336 95.8785 34.3386C95.5148 34.3452 95.1515 34.3113 94.7952 34.2375C94.5484 34.1909 94.3099 34.108 94.0874 33.9915C93.898 33.8887 93.7103 33.7824 93.5235 33.6744C93.4384 33.6031 93.3403 33.5489 93.2346 33.515C93.1673 33.4812 93.0939 33.4614 93.0187 33.4568C92.8927 33.4568 92.7873 33.5193 92.7007 33.6453C92.5868 33.8338 92.4908 34.0309 92.4119 34.2366H92.1223C92.3605 33.6496 92.5593 33.0463 92.7153 32.4318C92.8558 31.8804 92.9858 31.3264 93.1052 30.7701H93.394C93.3538 30.9612 93.3203 31.154 93.2929 31.3477C93.2638 31.5405 93.2544 31.7333 93.2638 31.9262C93.2929 32.5998 93.4995 33.12 93.8851 33.4859C94.2802 33.8518 94.8578 34.0344 95.618 34.0344C96.2633 34.0344 96.7501 33.8998 97.0774 33.6316C97.4048 33.3513 97.5685 32.9468 97.5685 32.4172C97.5685 32.0127 97.4914 31.6459 97.3371 31.3203C97.1916 30.9803 96.9969 30.6636 96.7595 30.3801C96.5145 30.0872 96.2592 29.8031 95.9942 29.5283C95.7285 29.254 95.4731 28.9695 95.228 28.6756C94.9916 28.3839 94.7926 28.0637 94.6358 27.7226C94.478 27.3579 94.3994 26.9638 94.4053 26.5665C94.4053 26.0866 94.5064 25.6666 94.7087 25.3101C94.9124 24.9624 95.1879 24.662 95.5168 24.4291C95.8542 24.1884 96.2305 24.0075 96.6292 23.8943C97.0171 23.7718 97.4213 23.7085 97.8282 23.7067C98.3484 23.7067 98.7769 23.7692 99.1137 23.8952C99.4513 24.0195 99.7401 24.1694 99.9809 24.3426L100.255 24.5157C100.342 24.5542 100.409 24.5731 100.457 24.5731C100.592 24.5731 100.751 24.3186 100.934 23.8078L101.223 23.8086Z" fill="#525B6E"/>
<path fill-rule="evenodd" clip-rule="evenodd" d="M87.2794 33.4714C87.2502 33.3274 87.2699 33.1397 87.3376 32.9083L90.1683 22.6526C89.7151 22.8384 89.2461 22.9832 88.7671 23.0854C88.276 23.1822 87.713 23.2345 87.0771 23.2448L86.976 23.5482C87.4473 23.5482 87.7421 23.6253 87.857 23.7795C87.9727 23.9338 87.9872 24.1738 87.9007 24.5011L87.2305 27.0284C87.1884 26.9065 87.1159 26.7973 87.0197 26.7113C86.856 26.5571 86.6297 26.4799 86.3409 26.4799C85.7824 26.4753 85.2315 26.6093 84.7375 26.8699C84.2435 27.1397 83.799 27.4915 83.4229 27.9103C83.0277 28.3346 82.6923 28.8109 82.4262 29.326C82.1635 29.8271 81.9552 30.3549 81.8048 30.9004C81.6677 31.37 81.5948 31.856 81.588 32.3453C81.588 32.8072 81.6609 33.1877 81.8048 33.4859C81.9497 33.7747 82.1468 33.9916 82.397 34.1355C82.6473 34.2709 82.9267 34.3378 83.2352 34.3378C83.7065 34.3378 84.1307 34.1989 84.5061 33.9196C84.8815 33.6308 85.2328 33.1877 85.5602 32.5904C85.6973 32.347 85.8353 32.0736 85.9733 31.7702L85.879 32.1284C85.7916 32.4112 85.7333 32.7009 85.705 32.9949C85.682 33.2085 85.7015 33.4247 85.7625 33.6308C85.8782 34.1021 86.2338 34.3386 86.832 34.3386C87.0531 34.3386 87.2794 34.2949 87.5107 34.2084C87.7421 34.1218 87.9581 33.9727 88.1604 33.7602C88.3729 33.5485 88.5409 33.246 88.666 32.85L89.0131 31.7959H88.7388L88.5074 32.4455C88.3343 32.9374 88.1706 33.2691 88.0164 33.4422C87.8715 33.6068 87.7224 33.6882 87.5682 33.6882C87.4053 33.6882 87.3085 33.6162 87.2794 33.4714ZM86.5081 29.752C86.4001 30.1042 86.2818 30.4393 86.1524 30.7555C85.9124 31.3726 85.6571 31.9022 85.3871 32.3453C85.1274 32.778 84.872 33.1148 84.6218 33.3565C84.3715 33.587 84.1504 33.7027 83.9568 33.7027C83.7742 33.7027 83.6397 33.6162 83.5531 33.4431C83.476 33.2597 83.4374 32.9854 83.4374 32.6195C83.4374 32.0993 83.4948 31.5697 83.6105 31.0306C83.7262 30.4821 83.8848 29.9568 84.087 29.4563C84.2734 28.9865 84.5059 28.5364 84.7812 28.1125C85.0409 27.708 85.3151 27.3901 85.6039 27.1587C85.9022 26.9273 86.1961 26.8125 86.4849 26.8125C86.6777 26.8125 86.832 26.8802 86.9477 27.0147C87.0283 27.1021 87.09 27.229 87.1328 27.3969L86.5081 29.752Z" fill="#525B6E"/>
<path d="M75.4099 34.1356H73.6333L75.3816 27.9103C75.4202 27.7758 75.4485 27.6506 75.4673 27.5349C75.4888 27.4381 75.4789 27.337 75.439 27.2461C75.4099 27.169 75.3276 27.1304 75.1931 27.1304C75.0105 27.1304 74.8417 27.2221 74.6874 27.4047C74.5435 27.5778 74.3841 27.9009 74.211 28.3731L73.9658 29.051H73.6916L74.067 27.9677C74.2692 27.3995 74.5298 27.0096 74.8468 26.7979C75.1639 26.5862 75.5153 26.4808 75.901 26.4808C76.2189 26.4808 76.4597 26.5425 76.6234 26.6677C76.7914 26.7843 76.91 26.9594 76.9559 27.1587C77.0039 27.3515 77.0133 27.5684 76.9851 27.8092C76.9556 28.0427 76.9121 28.2742 76.8548 28.5025L76.3732 30.381C76.5771 29.8763 76.776 29.4341 76.9705 29.051C77.2979 28.4065 77.615 27.8957 77.9235 27.5204C78.232 27.1347 78.5491 26.8656 78.8765 26.7114C79.1969 26.5588 79.5474 26.4797 79.9023 26.48C80.3736 26.48 80.7019 26.5862 80.8844 26.7979C81.0772 27.0002 81.1689 27.2693 81.1586 27.6069C81.1586 27.9343 81.0969 28.2857 80.971 28.661L79.5561 32.9083C79.4686 33.168 79.4447 33.366 79.4832 33.4997C79.5218 33.6256 79.6186 33.6882 79.7729 33.6882C79.9169 33.6882 80.066 33.6068 80.2202 33.4431C80.3839 33.2786 80.557 32.946 80.7404 32.4456L80.9718 31.796H81.2461L80.8844 32.8501C80.7499 33.2546 80.5759 33.5631 80.3651 33.7756C80.1836 33.9738 79.9547 34.1227 79.7 34.2084C79.4789 34.2941 79.2441 34.337 79.0067 34.3387C78.7565 34.3387 78.5397 34.295 78.3571 34.2084C78.1831 34.1313 78.0486 34.0199 77.9526 33.8759C77.8275 33.6934 77.7744 33.4568 77.7932 33.168C77.8129 32.8792 77.8901 32.533 78.0246 32.1285L79.3392 28.1563C79.3872 28.002 79.4258 27.8478 79.4549 27.6935C79.4852 27.5597 79.4802 27.4203 79.4404 27.289C79.4018 27.1733 79.3007 27.1159 79.137 27.1159C78.9347 27.1159 78.7128 27.2316 78.4728 27.4621C78.232 27.6841 77.9809 27.9969 77.7212 28.4014C77.4333 28.8573 77.1727 29.3304 76.9414 29.8171C76.6817 30.357 76.4306 30.9432 76.1898 31.5791C75.9584 32.2047 75.7527 32.8552 75.5693 33.5297L75.5779 33.4825L75.4099 34.1356Z" fill="#525B6E"/>
<path fill-rule="evenodd" clip-rule="evenodd" d="M70.0125 31.9039L69.9525 32.1284C69.8617 32.4541 69.7983 32.7883 69.764 33.1251C69.7348 33.4336 69.7828 33.6933 69.908 33.905C70.1008 34.1938 70.4282 34.3386 70.8909 34.3386C71.1379 34.3369 71.3819 34.2846 71.608 34.1852C71.8341 34.0857 72.0374 33.9411 72.2056 33.7602C72.4078 33.5391 72.5758 33.2305 72.7112 32.8363L73.0711 31.7822H72.7969L72.5809 32.4318C72.407 32.9323 72.2381 33.2648 72.0753 33.4285C71.9116 33.5913 71.7522 33.6736 71.5988 33.6736C71.4728 33.6736 71.3914 33.635 71.3529 33.5579C71.3227 33.4598 71.3128 33.3566 71.3237 33.2545C71.3434 33.1294 71.3717 33.0094 71.4111 32.8937L73.2743 26.4799C72.9844 26.5493 72.69 26.5977 72.3933 26.6248C72.0712 26.6552 71.7482 26.6743 71.4249 26.6822L71.2157 27.4552C71.207 27.2587 71.1499 27.0674 71.0495 26.8982C70.9741 26.7669 70.8644 26.6586 70.7321 26.5849C70.5999 26.5112 70.4501 26.4749 70.2987 26.4799C69.8745 26.4799 69.4503 26.6102 69.027 26.8699C68.5766 27.1535 68.1723 27.5044 67.828 27.9103C67.439 28.3531 67.0998 28.8373 66.8168 29.3543C66.5327 29.8726 66.3051 30.42 66.138 30.9869C65.9804 31.497 65.8979 32.0273 65.8929 32.5612C65.8929 33.1011 66.018 33.5339 66.2683 33.8613C66.5185 34.1784 66.9042 34.3378 67.4235 34.3378C67.7895 34.3378 68.1417 34.2324 68.4776 34.0207C68.8247 33.8082 69.1529 33.4568 69.4606 32.9666C69.6517 32.6709 69.8351 32.317 70.0125 31.9039ZM68.7673 33.3694C68.5462 33.5725 68.3482 33.6736 68.1751 33.6736C68.0303 33.6736 67.9197 33.6016 67.8426 33.4568C67.7757 33.3025 67.7415 33.048 67.7415 32.6915C67.7415 32.1807 67.7997 31.6562 67.9154 31.1172C68.0303 30.5773 68.1845 30.0579 68.3774 29.5574C68.5796 29.0561 68.8007 28.6087 69.0415 28.2137C69.2823 27.8194 69.5232 27.5058 69.764 27.2744C70.0142 27.043 70.2499 26.9282 70.4719 26.9282C70.7033 26.9282 70.8661 27.0439 70.9629 27.2744C71.0589 27.4835 71.0829 27.7629 71.0375 28.1142L70.6107 29.6928L70.6595 29.4417C70.517 30.0221 70.3337 30.5917 70.1111 31.1463C69.9261 31.6112 69.7037 32.0603 69.446 32.4892C69.2146 32.8646 68.9884 33.1577 68.7673 33.3702V33.3694Z" fill="#525B6E"/>
<path d="M62.0296 34.1356H60.253L61.9858 27.9103C62.0724 27.6215 62.1015 27.4193 62.0724 27.3036C62.0441 27.1879 61.9576 27.1305 61.8127 27.1305C61.6302 27.1305 61.4614 27.2222 61.3071 27.4047C61.1528 27.5872 60.9943 27.9103 60.8306 28.3731L60.5847 29.051H60.3104L60.6858 27.9678C60.8212 27.5821 60.9892 27.2847 61.1914 27.0722C61.3719 26.866 61.6002 26.7074 61.8564 26.6103C62.0964 26.5237 62.3424 26.48 62.5935 26.48C62.9011 26.48 63.1274 26.5426 63.2713 26.6685C63.4245 26.7914 63.5275 26.9661 63.561 27.1596C63.609 27.3619 63.6184 27.583 63.5893 27.8238C63.5704 28.0552 63.5319 28.2814 63.4736 28.5025L63.2422 29.4084L63.2653 29.3458L63.3005 29.2541C63.5704 28.5702 63.8301 28.026 64.0804 27.6215C64.3409 27.2076 64.6151 26.9136 64.9039 26.7405C65.1867 26.5691 65.5124 26.4783 65.8432 26.48C66.1894 26.48 66.4542 26.5811 66.6376 26.7834C66.8296 26.9856 66.9265 27.2359 66.9265 27.535C66.9265 27.7749 66.8682 28.002 66.7525 28.2137C66.6411 28.4125 66.4817 28.5805 66.2906 28.7048C66.0994 28.8222 65.8792 28.883 65.6547 28.8779C65.4147 28.8779 65.2219 28.8153 65.077 28.6902C64.9425 28.5651 64.8748 28.3817 64.8748 28.1417C64.8748 27.9292 64.9228 27.7372 65.0196 27.5633C65.1156 27.3901 65.2407 27.2462 65.395 27.1305C65.5493 27.0053 65.7172 26.9188 65.9006 26.8699C65.8803 26.8502 65.8556 26.8356 65.8286 26.8271C65.7959 26.8158 65.7613 26.8109 65.7267 26.8125C65.5158 26.8125 65.2981 26.8896 65.077 27.0439C64.8559 27.1879 64.6245 27.4244 64.3837 27.7518C64.1438 28.0792 63.8978 28.512 63.6467 29.051C63.3639 29.6886 63.1137 30.3391 62.896 31.0015C62.7871 31.3212 62.6774 31.6666 62.5677 32.0359L62.0296 34.1356Z" fill="#525B6E"/>
<path fill-rule="evenodd" clip-rule="evenodd" d="M59.3274 24.4437C58.8458 24.0966 58.0754 23.9235 57.0161 23.9235C56.6887 23.9235 56.3614 23.9286 56.0331 23.9381C55.716 23.9475 55.3501 23.9526 54.9362 23.9526H54.2137C53.9532 23.9424 53.7081 23.9381 53.4767 23.9381C53.2841 23.9297 53.0915 23.92 52.8991 23.9089L52.8271 24.1977C53.2025 24.1977 53.4578 24.2457 53.5924 24.3426C53.7372 24.4283 53.8041 24.5637 53.7946 24.7471C53.7752 24.981 53.7365 25.2129 53.6789 25.4404L51.7721 32.6049C51.6864 32.9511 51.5896 33.2117 51.4833 33.3848C51.3873 33.5504 51.233 33.6741 51.0505 33.7319C50.8671 33.7893 50.6117 33.8279 50.2844 33.8467L50.227 34.1355C50.3898 34.1269 50.5878 34.1218 50.8183 34.1218C51.0497 34.1115 51.2956 34.1072 51.5553 34.1072C52.282 34.085 53.0096 34.0901 53.7364 34.1218C54.1314 34.1304 54.4931 34.1364 54.8205 34.1364C55.4461 34.1364 56.0383 34.073 56.597 33.9478C57.1121 33.8311 57.6047 33.6313 58.0556 33.3565C58.4591 33.1162 58.8005 32.7845 59.0523 32.3881C59.3026 32.0024 59.4277 31.5508 59.4277 31.0306C59.4277 30.4427 59.1877 29.9371 58.7061 29.5137C58.2348 29.0895 57.4875 28.8393 56.4668 28.7621C57.1036 28.6707 57.7223 28.4808 58.3007 28.1991C58.8407 27.9197 59.264 27.5778 59.5725 27.1732C59.8831 26.7892 60.0514 26.3097 60.049 25.8158C60.049 25.2381 59.8099 24.7805 59.3274 24.4437ZM54.7168 28.9507L53.7509 32.6049C53.6935 32.8449 53.655 33.0574 53.6361 33.24C53.6258 33.4234 53.6738 33.563 53.7801 33.6599C53.8863 33.7559 54.0835 33.8039 54.3723 33.8039C55.0561 33.8039 55.6149 33.6736 56.0477 33.4139C56.4717 33.1646 56.8096 32.7917 57.0161 32.3452C57.2278 31.8825 57.3332 31.3623 57.3332 30.7855C57.3332 30.4281 57.2706 30.1153 57.1455 29.8462C57.0354 29.5729 56.8372 29.344 56.5825 29.1958C56.3228 29.0321 55.9757 28.9507 55.5421 28.9507H54.7168ZM54.7819 28.7047H55.4418C55.9903 28.7047 56.4573 28.565 56.8421 28.2856C57.2372 27.9968 57.5363 27.6215 57.7386 27.1595C57.9492 26.7019 58.0574 26.2038 58.0556 25.7001C58.0556 25.2184 57.9597 24.8482 57.7668 24.5877C57.5843 24.328 57.2612 24.1977 56.7984 24.1977C56.4625 24.1977 56.2217 24.2654 56.0768 24.4C55.9329 24.5251 55.8077 24.7994 55.7015 25.2227L54.7819 28.7047Z" fill="#525B6E"/>
</g>
</g>
</g>
</g>
<defs>
<clipPath id="clip0_563_3425">
<rect width="153" height="34.28" fill="white" transform="translate(0 0.859985)"/>
</clipPath>
<clipPath id="clip1_563_3425">
<rect width="153" height="34.28" fill="white" transform="translate(0 0.859985)"/>
</clipPath>
<clipPath id="clip2_563_3425">
<rect width="149.975" height="34.28" fill="white" transform="translate(1.5125 0.859985)"/>
</clipPath>
</defs>
</svg>
