<svg width="94" height="36" viewBox="0 0 94 36" fill="none" xmlns="http://www.w3.org/2000/svg">
<g clip-path="url(#clip0_563_3454)">
<g clip-path="url(#clip1_563_3454)">
<g clip-path="url(#clip2_563_3454)">
<path d="M43.0942 31.5381H45.5412V22.307H43.0942V31.5381ZM43.0942 20.867H45.5412V18.6715H43.0942V20.867ZM47.1181 34.5614H49.566V30.4945H49.6018C50.1236 31.2866 50.9693 31.8084 52.2653 31.8084C54.6406 31.8084 56.2597 29.919 56.2597 26.9315C56.2597 24.0523 54.6934 22.0546 52.2474 22.0546C50.9872 22.0546 50.1236 22.6489 49.5302 23.4589H49.4765V22.307H47.1181V34.5614ZM51.7435 29.7749C50.2855 29.7749 49.5114 28.6767 49.5114 27.0031C49.5114 25.3473 50.1236 24.0344 51.6531 24.0344C53.1648 24.0344 53.7769 25.2578 53.7769 27.0031C53.7769 28.7483 52.9849 29.7749 51.7435 29.7749ZM61.141 31.8084C63.4447 31.8084 65.0289 30.6923 65.0289 28.8387C65.0289 26.6791 63.3194 26.2477 61.7711 25.9237C60.4581 25.6534 59.2338 25.5818 59.2338 24.7898C59.2338 24.1239 59.8638 23.7641 60.8179 23.7641C61.8615 23.7641 62.4916 24.1239 62.599 25.1138H64.8123C64.6333 23.2611 63.2827 22.0546 60.8537 22.0546C58.7487 22.0546 57.0929 23.0087 57.0929 25.0064C57.0929 27.0219 58.7129 27.4712 60.3686 27.7952C61.6279 28.0467 62.7968 28.1371 62.7968 29.0186C62.7968 29.6666 62.1855 30.0801 61.1052 30.0801C60.0079 30.0801 59.2526 29.6129 59.0906 28.5506H56.8226C56.9667 30.5124 58.4596 31.8084 61.141 31.8084ZM74.3199 31.5381V22.307H71.8729V27.6332C71.8729 28.8566 71.1713 29.7203 70.0194 29.7203C68.9758 29.7203 68.489 29.1269 68.489 28.0467V22.307H66.0608V28.4611C66.0608 30.4766 67.2118 31.7905 69.264 31.7905C70.5591 31.7905 71.2787 31.3045 71.9087 30.4587H71.9624V31.5381H74.3199ZM75.9031 31.5381H78.3501V26.1761C78.3501 24.9518 79.0159 24.1606 80.0058 24.1606C80.9053 24.1606 81.4271 24.7003 81.4271 25.7438V31.5381H83.8749V26.1761C83.8749 24.9518 84.505 24.1606 85.5307 24.1606C86.4301 24.1606 86.9519 24.7003 86.9519 25.7438V31.5381H89.3988V25.3303C89.3988 23.3148 88.3016 22.0546 86.3576 22.0546C85.1888 22.0546 84.2168 22.6668 83.5867 23.6746H83.5509C83.1007 22.7026 82.1655 22.0546 80.9957 22.0546C79.7176 22.0546 78.8181 22.7026 78.3143 23.5493H78.2606V22.307H75.9031V31.5381ZM43.13 15.727H45.5778V2.86047H43.13V15.727ZM51.5618 15.9973C54.4231 15.9973 56.3841 13.8734 56.3841 11.1195C56.3841 8.36741 54.4231 6.24357 51.5618 6.24357C48.7005 6.24357 46.7387 8.36741 46.7387 11.1204C46.7387 13.8734 48.7005 15.9973 51.5618 15.9973ZM51.5618 14.1258C50.0493 14.1258 49.2223 12.9194 49.2223 11.1204C49.2223 9.32148 50.0502 8.09712 51.5618 8.09712C53.0547 8.09712 53.9005 9.32058 53.9005 11.1204C53.9005 12.9194 53.0547 14.1258 51.5618 14.1258ZM61.5885 18.8756C62.9561 18.8756 64.1437 18.5525 64.9179 17.832C65.6017 17.2028 66.0152 16.3204 66.0152 15.0253V6.49596H63.6577V7.46704H63.6219C63.0644 6.69376 62.2186 6.24357 61.0667 6.24357C58.7272 6.24357 57.0714 8.00672 57.0714 10.7606C57.0714 13.5495 59.087 15.1694 61.1383 15.1694C62.3081 15.1694 63.0098 14.7013 63.5503 14.0891H63.604V15.0969C63.604 16.3571 62.9382 17.023 61.5527 17.023C60.4187 17.023 59.897 16.5728 59.6992 15.9973H57.2701C57.5216 17.7962 59.0691 18.8756 61.5885 18.8756ZM61.5527 13.2076C60.2925 13.2076 59.4647 12.2902 59.4647 10.7248C59.4647 9.17649 60.2925 8.20541 61.5348 8.20541C63.0098 8.20541 63.7302 9.35728 63.7302 10.7069C63.7302 12.0745 63.1002 13.2076 61.5527 13.2076ZM71.9633 15.9973C74.8247 15.9973 76.7865 13.8734 76.7865 11.1195C76.7865 8.36741 74.8247 6.24357 71.9633 6.24357C69.1029 6.24357 67.1411 8.36741 67.1411 11.1204C67.1411 13.8734 69.1029 15.9973 71.9633 15.9973ZM71.9633 14.1258C70.4526 14.1258 69.6247 12.9194 69.6247 11.1204C69.6247 9.32148 70.4526 8.09712 71.9642 8.09712C73.4571 8.09712 74.3029 9.32058 74.3029 11.1204C74.3029 12.9194 73.4571 14.1258 71.9633 14.1258ZM78.9318 12.1998H89.5125V10.0957H78.9318V12.2007V12.1998ZM90.2885 20.739C90.2885 20.3246 90.6241 19.989 91.0385 19.989H92.5376C92.6382 19.9855 92.7385 20.0023 92.8325 20.0384C92.9265 20.0745 93.0122 20.1292 93.0846 20.1991C93.157 20.2691 93.2146 20.3529 93.2539 20.4456C93.2933 20.5382 93.3135 20.6379 93.3135 20.7385C93.3135 20.8392 93.2933 20.9389 93.2539 21.0315C93.2146 21.1242 93.157 21.208 93.0846 21.278C93.0122 21.3479 92.9265 21.4026 92.8325 21.4387C92.7385 21.4748 92.6382 21.4916 92.5376 21.4881H91.0385C90.8397 21.4881 90.6491 21.4092 90.5085 21.2688C90.3678 21.1283 90.2887 20.9378 90.2885 20.739Z" fill="#525B6E"/>
<path fill-rule="evenodd" clip-rule="evenodd" d="M18.3797 0C28.265 0 36.2797 8.01383 36.2797 17.9C36.2797 27.7862 28.265 35.8 18.3797 35.8C8.49352 35.8 0.479687 27.7862 0.479687 17.9C0.479687 8.01383 8.49352 0 18.3797 0ZM17.7326 1.33981C15.6902 1.62621 13.7463 3.26764 12.2364 6.01171C11.7979 6.80826 11.4041 7.68715 11.0595 8.63675C13.1117 8.12123 15.3662 7.81693 17.7326 7.77039V1.33981ZM9.54604 9.06724C9.94512 7.79368 10.4667 6.56177 11.1033 5.38879C11.8507 4.02839 12.7385 2.85326 13.7391 1.9511C11.0559 2.73462 8.61331 4.18142 6.63676 6.15796C4.66021 8.13451 3.21341 10.5771 2.42989 13.2603C3.33295 12.2597 4.50719 11.3719 5.86759 10.6236C7.04057 9.98697 8.27247 9.46633 9.54604 9.06724ZM9.11644 10.5798C8.60092 12.632 8.29662 14.8865 8.24918 17.2529H1.81861C2.1059 15.2105 3.74733 13.2666 6.4914 11.7576C7.28795 11.3191 8.16684 10.9244 9.11644 10.5798ZM9.54425 17.2529C9.59795 14.6708 9.96937 12.2463 10.5842 10.1045C12.726 9.48969 15.1505 9.11826 17.7326 9.06456V11.8596C17.2537 13.0818 16.5274 14.1919 15.5991 15.12C14.6708 16.0481 13.5607 16.7743 12.3384 17.2529H9.54425ZM8.24918 18.5471H1.81861C2.1059 20.5895 3.74733 22.5334 6.4914 24.0424C7.28795 24.4809 8.16684 24.8756 9.11644 25.2202C8.60092 23.168 8.29662 20.9135 8.24918 18.5471ZM10.5842 25.6954C9.96937 23.5537 9.59705 21.1292 9.54425 18.5471H12.3384C13.5607 19.0257 14.6708 19.7519 15.5991 20.68C16.5274 21.6081 17.2537 22.7182 17.7326 23.9404V26.7354C15.1505 26.6817 12.726 26.3103 10.5842 25.6954ZM9.54604 26.7337C8.27247 26.3346 7.04057 25.813 5.86759 25.1763C4.50719 24.4281 3.33295 23.5403 2.43079 22.5397C3.21414 25.2227 4.66067 27.6651 6.63689 29.6417C8.61311 31.6182 11.0553 33.0651 13.7382 33.8489C12.7376 32.9467 11.8498 31.7725 11.1015 30.4121C10.4652 29.2391 9.94393 28.0072 9.54514 26.7337H9.54604ZM17.7326 34.4602C15.6902 34.1738 13.7463 32.5324 12.2364 29.7883C11.7979 28.9917 11.4041 28.1119 11.0595 27.1632C13.1117 27.6788 15.3662 27.9831 17.7326 28.0296V34.4602ZM23.0194 33.8489C24.02 32.9467 24.9078 31.7725 25.656 30.4121C26.2924 29.2391 26.8136 28.0072 27.2124 26.7337C28.4857 26.3345 29.7173 25.813 30.89 25.1763C32.2504 24.4281 33.4255 23.5403 34.3268 22.5397C33.5435 25.2226 32.0971 27.665 30.1211 29.6415C28.145 31.618 25.703 33.065 23.0203 33.8489H23.0194ZM25.6999 27.1632C25.3755 28.0673 24.9817 28.9449 24.5221 29.7883C23.0131 32.5324 21.0683 34.1738 19.0268 34.4602V28.0296C21.3923 27.9831 23.6468 27.6788 25.6999 27.1632ZM27.642 25.2202C28.5461 24.8961 29.4237 24.5026 30.2671 24.0433C33.0111 22.5334 34.6526 20.5886 34.9399 18.5471H28.5093C28.4619 20.9135 28.1576 23.168 27.642 25.2202ZM27.2151 18.5471C27.1614 21.1292 26.79 23.5537 26.1742 25.6954C24.0325 26.3103 21.6088 26.6817 19.0259 26.7354V23.943C19.5044 22.7201 20.2307 21.6093 21.1592 20.6806C22.0876 19.7518 23.1981 19.0251 24.4209 18.5462L27.2151 18.5471ZM28.5093 17.2529H34.9399C34.6526 15.2105 33.012 13.2666 30.268 11.7576C29.4714 11.3191 28.5916 10.9244 27.642 10.5798C28.1576 12.632 28.4619 14.8865 28.5093 17.2529ZM26.1733 10.1045C26.7891 12.2463 27.1605 14.6708 27.2142 17.2529H24.42C23.1975 16.774 22.0872 16.0474 21.1589 15.1188C20.2306 14.1902 19.5044 13.0797 19.0259 11.857V9.06456C21.608 9.11826 24.0316 9.48969 26.1733 10.1045ZM27.2115 9.06635C28.4851 9.46545 29.717 9.98699 30.89 10.6236C32.2504 11.3719 33.4255 12.2597 34.3268 13.2603C33.5435 10.5774 32.0971 8.13503 30.1211 6.1585C28.145 4.18198 25.703 2.73501 23.0203 1.9511C24.0209 2.85326 24.9087 4.0275 25.6569 5.3879C26.2933 6.56093 26.8145 7.79283 27.2133 9.06635H27.2115ZM19.0259 1.33981C21.0674 1.62621 23.0122 3.26764 24.5212 6.01171C24.9597 6.80826 25.3535 7.68715 25.699 8.63675C23.6459 8.12123 21.3914 7.81693 19.025 7.77039L19.0259 1.33981Z" fill="#525B6E"/>
</g>
</g>
</g>
<defs>
<clipPath id="clip0_563_3454">
<rect width="94" height="35.8" fill="white"/>
</clipPath>
<clipPath id="clip1_563_3454">
<rect width="94" height="35.8" fill="white"/>
</clipPath>
<clipPath id="clip2_563_3454">
<rect width="94.87" height="35.8" fill="white" transform="translate(-0.435001)"/>
</clipPath>
</defs>
</svg>
